<svg width="12px" height="11px" viewBox="0 0 12 11" version="1.1" xmlns="http://www.w3.org/2000/svg" xmlns:xlink="http://www.w3.org/1999/xlink">
    <g id="Symbols" stroke="none" stroke-width="1" fill="none" fill-rule="evenodd">
        <g id="peoplecard" transform="translate(-320.000000, -358.000000)" fill="#1d3541">
            <path d="M328.262673,358.645485 L332.168923,362.747048 C332.403299,362.981424 332.520485,363.2809 332.520485,363.645485 C332.520485,363.984029 332.403299,364.270484 332.168923,364.50486 L328.262673,368.645485 C328.028297,368.879861 327.748351,368.997048 327.422829,368.997048 C327.097307,368.997048 326.817361,368.879861 326.582985,368.645485 C326.348609,368.411109 326.231423,368.111633 326.231423,367.747048 C326.231423,367.382463 326.348609,367.082986 326.582985,366.84861 L328.457985,364.895485 L319.981423,364.895485 C319.642879,364.895485 319.356424,364.771789 319.122048,364.524392 C318.887672,364.276994 318.770485,363.984029 318.770485,363.645485 C318.770485,363.306942 318.887672,363.013976 319.122048,362.766579 C319.356424,362.519182 319.642879,362.395485 319.981423,362.395485 L328.457985,362.395485 L326.543923,360.44236 C326.309547,360.207984 326.19236,359.908508 326.19236,359.543923 C326.19236,359.179338 326.309547,358.879861 326.543923,358.645485 C326.778299,358.411109 327.064754,358.293923 327.403298,358.293923 C327.741841,358.293923 328.028297,358.411109 328.262673,358.645485 Z" id="ion-arrow-right-c---Ionicons-Copy-8" transform="translate(325.645485, 363.645485) rotate(-45.000000) translate(-325.645485, -363.645485) "></path>
        </g>
    </g>
</svg>