<svg version="1.1" viewBox="0.0 0.0 600.0 371.0" fill="none" stroke="none" stroke-linecap="square" stroke-miterlimit="10" width="600" height="371" xmlns:xlink="http://www.w3.org/1999/xlink" xmlns="http://www.w3.org/2000/svg"><path fill="#ffffff" d="M0 0L600.0 0L600.0 371.0L0 371.0L0 0Z" fill-rule="nonzero"/><path stroke="#333333" stroke-width="1.0" stroke-linecap="butt" d="M45.5 297.5L525.5 297.5" fill-rule="nonzero"/><path stroke="#3366cc" stroke-width="1.0" stroke-linecap="butt" d="M45.5 249.5L525.5 249.5" fill-rule="nonzero"/><path stroke="#3366cc" stroke-width="1.0" stroke-linecap="butt" d="M45.5 201.5L525.5 201.5" fill-rule="nonzero"/><path stroke="#3366cc" stroke-width="1.0" stroke-linecap="butt" d="M45.5 153.5L525.5 153.5" fill-rule="nonzero"/><path stroke="#3366cc" stroke-width="1.0" stroke-linecap="butt" d="M45.5 105.5L525.5 105.5" fill-rule="nonzero"/><path stroke="#3366cc" stroke-width="1.0" stroke-linecap="butt" d="M45.5 57.5L525.5 57.5" fill-rule="nonzero"/><clipPath id="id_0"><path d="M45.55 57.416668L525.16 57.416668L525.16 297.3061L45.55 297.3061L45.55 57.416668Z" clip-rule="nonzero"/></clipPath><path stroke="#3366cc" stroke-width="2.0" stroke-linecap="butt" clip-path="url(#id_0)" d="M65.53375 87.64273L105.50125 75.64826L145.46875 79.006714L185.43625 72.28981L225.40375 76.128044L265.37125 73.24937L305.33875 85.72362L345.30624 78.52693L385.27374 67.012245L425.24124 67.49202L465.20874 85.243835L505.17624 78.76682" fill-rule="nonzero"/><path fill="#000000" fill-opacity="0.0" clip-path="url(#id_0)" d="M68.53375 87.64273C68.53375 89.29958 67.190605 90.64273 65.53375 90.64273C63.876896 90.64273 62.53375 89.29958 62.53375 87.64273C62.53375 85.98588 63.876896 84.64273 65.53375 84.64273C67.190605 84.64273 68.53375 85.98588 68.53375 87.64273Z" fill-rule="nonzero"/><path fill="#000000" fill-opacity="0.0" clip-path="url(#id_0)" d="M108.50125 75.64826C108.50125 77.305115 107.158104 78.64826 105.50125 78.64826C103.8444 78.64826 102.50125 77.305115 102.50125 75.64826C102.50125 73.99141 103.8444 72.64826 105.50125 72.64826C107.158104 72.64826 108.50125 73.99141 108.50125 75.64826Z" fill-rule="nonzero"/><path fill="#000000" fill-opacity="0.0" clip-path="url(#id_0)" d="M148.46875 79.006714C148.46875 80.66357 147.12561 82.006714 145.46875 82.006714C143.81189 82.006714 142.46875 80.66357 142.46875 79.006714C142.46875 77.34986 143.81189 76.006714 145.46875 76.006714C147.12561 76.006714 148.46875 77.34986 148.46875 79.006714Z" fill-rule="nonzero"/><path fill="#000000" fill-opacity="0.0" clip-path="url(#id_0)" d="M188.43625 72.28981C188.43625 73.94666 187.09311 75.28981 185.43625 75.28981C183.77939 75.28981 182.43625 73.94666 182.43625 72.28981C182.43625 70.63296 183.77939 69.28981 185.43625 69.28981C187.09311 69.28981 188.43625 70.63296 188.43625 72.28981Z" fill-rule="nonzero"/><path fill="#000000" fill-opacity="0.0" clip-path="url(#id_0)" d="M228.40375 76.128044C228.40375 77.7849 227.06061 79.128044 225.40375 79.128044C223.7469 79.128044 222.40375 77.7849 222.40375 76.128044C222.40375 74.47118 223.7469 73.128044 225.40375 73.128044C227.06061 73.128044 228.40375 74.47118 228.40375 76.128044Z" fill-rule="nonzero"/><path fill="#000000" fill-opacity="0.0" clip-path="url(#id_0)" d="M268.37125 73.24937C268.37125 74.90622 267.0281 76.24937 265.37125 76.24937C263.7144 76.24937 262.37125 74.90622 262.37125 73.24937C262.37125 71.592514 263.7144 70.24937 265.37125 70.24937C267.0281 70.24937 268.37125 71.592514 268.37125 73.24937Z" fill-rule="nonzero"/><path fill="#000000" fill-opacity="0.0" clip-path="url(#id_0)" d="M308.33875 85.72362C308.33875 87.38047 306.9956 88.72362 305.33875 88.72362C303.6819 88.72362 302.33875 87.38047 302.33875 85.72362C302.33875 84.066765 303.6819 82.72362 305.33875 82.72362C306.9956 82.72362 308.33875 84.066765 308.33875 85.72362Z" fill-rule="nonzero"/><path fill="#000000" fill-opacity="0.0" clip-path="url(#id_0)" d="M348.30624 78.52693C348.30624 80.18379 346.9631 81.52693 345.30624 81.52693C343.64938 81.52693 342.30624 80.18379 342.30624 78.52693C342.30624 76.87008 343.64938 75.52693 345.30624 75.52693C346.9631 75.52693 348.30624 76.87008 348.30624 78.52693Z" fill-rule="nonzero"/><path fill="#000000" fill-opacity="0.0" clip-path="url(#id_0)" d="M388.27374 67.012245C388.27374 68.6691 386.9306 70.012245 385.27374 70.012245C383.61688 70.012245 382.27374 68.6691 382.27374 67.012245C382.27374 65.35539 383.61688 64.012245 385.27374 64.012245C386.9306 64.012245 388.27374 65.35539 388.27374 67.012245Z" fill-rule="nonzero"/><path fill="#000000" fill-opacity="0.0" clip-path="url(#id_0)" d="M428.24124 67.49202C428.24124 69.14888 426.8981 70.49202 425.24124 70.49202C423.58438 70.49202 422.24124 69.14888 422.24124 67.49202C422.24124 65.83517 423.58438 64.49202 425.24124 64.49202C426.8981 64.49202 428.24124 65.83517 428.24124 67.49202Z" fill-rule="nonzero"/><path fill="#000000" fill-opacity="0.0" clip-path="url(#id_0)" d="M468.20874 85.243835C468.20874 86.900696 466.8656 88.243835 465.20874 88.243835C463.5519 88.243835 462.20874 86.900696 462.20874 85.243835C462.20874 83.58698 463.5519 82.243835 465.20874 82.243835C466.8656 82.243835 468.20874 83.58698 468.20874 85.243835Z" fill-rule="nonzero"/><path fill="#000000" fill-opacity="0.0" clip-path="url(#id_0)" d="M508.17624 78.76682C508.17624 80.423676 506.8331 81.76682 505.17624 81.76682C503.5194 81.76682 502.17624 80.423676 502.17624 78.76682C502.17624 77.10997 503.5194 75.76682 505.17624 75.76682C506.8331 75.76682 508.17624 77.10997 508.17624 78.76682Z" fill-rule="nonzero"/><path fill="#757575" d="M38.6125 298.16547Q38.6125 300.07172 37.95625 301.00922Q37.315624 301.9311 35.925 301.9311Q34.565624 301.9311 33.909374 301.02484Q33.253124 300.1186 33.221874 298.3061L33.221874 296.8686Q33.221874 294.97797 33.8625 294.07172Q34.51875 293.14984 35.909374 293.14984Q37.284374 293.14984 37.940624 294.04047Q38.596874 294.91547 38.6125 296.75922L38.6125 298.16547ZM37.51875 296.6811Q37.51875 295.3061 37.128124 294.6811Q36.753124 294.04047 35.909374 294.04047Q35.08125 294.04047 34.690624 294.6811Q34.315624 295.3061 34.315624 296.60297L34.315624 298.33734Q34.315624 299.71234 34.70625 300.38422Q35.1125 301.04047 35.925 301.04047Q36.721874 301.04047 37.1125 300.41547Q37.503124 299.79047 37.51875 298.46234L37.51875 296.6811Z" fill-rule="nonzero"/><path fill="#757575" d="M36.815624 253.8282L35.7375 253.8282L35.7375 246.60945L33.55 247.40633L33.55 246.42195L36.659374 245.25008L36.815624 245.25008L36.815624 253.8282Z" fill-rule="nonzero"/><path fill="#757575" d="M38.846874 205.85031L33.253124 205.85031L33.253124 205.06906L36.20625 201.78781Q36.8625 201.03781 37.1125 200.58469Q37.3625 200.11594 37.3625 199.61594Q37.3625 198.94406 36.95625 198.52219Q36.565624 198.08469 35.878124 198.08469Q35.08125 198.08469 34.628124 198.55344Q34.175 199.00656 34.175 199.83469L33.096874 199.83469Q33.096874 198.64719 33.846874 197.92844Q34.6125 197.19406 35.878124 197.19406Q37.08125 197.19406 37.76875 197.81906Q38.45625 198.44406 38.45625 199.49094Q38.45625 200.74094 36.846874 202.49094L34.565624 204.95969L38.846874 204.95969L38.846874 205.85031Z" fill-rule="nonzero"/><path fill="#757575" d="M34.83125 153.07556L35.64375 153.07556Q36.425 153.05994 36.8625 152.66931Q37.3 152.27869 37.3 151.60681Q37.3 150.10681 35.8 150.10681Q35.096874 150.10681 34.675 150.51306Q34.26875 150.91931 34.26875 151.57556L33.175 151.57556Q33.175 150.55994 33.909374 149.88806Q34.659374 149.21619 35.8 149.21619Q37.003124 149.21619 37.690624 149.85681Q38.378124 150.49744 38.378124 151.63806Q38.378124 152.20056 38.01875 152.71619Q37.659374 153.23181 37.034374 153.49744Q37.7375 153.71619 38.1125 154.23181Q38.503124 154.74744 38.503124 155.49744Q38.503124 156.63806 37.753124 157.32556Q37.003124 157.99744 35.8 157.99744Q34.6125 157.99744 33.846874 157.34119Q33.096874 156.68494 33.096874 155.62244L34.190624 155.62244Q34.190624 156.29431 34.628124 156.70056Q35.065624 157.10681 35.815624 157.10681Q36.596874 157.10681 37.003124 156.70056Q37.425 156.27869 37.425 155.51306Q37.425 154.77869 36.971874 154.38806Q36.51875 153.98181 35.64375 153.96619L34.83125 153.96619L34.83125 153.07556Z" fill-rule="nonzero"/><path fill="#757575" d="M37.83125 107.03517L39.01875 107.03517L39.01875 107.91017L37.83125 107.91017L37.83125 109.89455L36.753124 109.89455L36.753124 107.91017L32.8625 107.91017L32.8625 107.26955L36.675 101.3633L37.83125 101.3633L37.83125 107.03517ZM34.096874 107.03517L36.753124 107.03517L36.753124 102.84767L36.6125 103.08205L34.096874 107.03517Z" fill-rule="nonzero"/><path fill="#757575" d="M33.753124 57.635418L34.190624 53.385418L38.565624 53.385418L38.565624 54.385418L35.1125 54.385418L34.846874 56.713543Q35.4875 56.338543 36.284374 56.338543Q37.440624 56.338543 38.128124 57.119793Q38.815624 57.885418 38.815624 59.197918Q38.815624 60.510418 38.096874 61.276043Q37.39375 62.041668 36.1125 62.041668Q34.9875 62.041668 34.26875 61.416668Q33.55 60.776043 33.45625 59.666668L34.471874 59.666668Q34.58125 60.401043 35.003124 60.776043Q35.425 61.151043 36.1125 61.151043Q36.8625 61.151043 37.3 60.635418Q37.7375 60.119793 37.7375 59.213543Q37.7375 58.354168 37.26875 57.838543Q36.8 57.322918 36.01875 57.322918Q35.315624 57.322918 34.909374 57.619793L34.628124 57.854168L33.753124 57.635418Z" fill-rule="nonzero"/><path fill="#757575" d="M34.63097 351.1794L30.675592 355.1348L30.123165 354.58237L29.891146 350.174Q29.824854 349.17963 29.681223 348.68243Q29.526543 348.17422 29.17299 347.82065Q28.697903 347.34558 28.11233 347.33453Q27.526758 347.3014 27.04062 347.7875Q26.477146 348.35098 26.488194 349.00287Q26.488194 349.64368 27.073767 350.22925L26.311417 350.99158Q25.471727 350.15192 25.493826 349.11334Q25.515923 348.05267 26.410854 347.15775Q27.261593 346.307 28.18967 346.26282Q29.117748 346.21863 29.858 346.95886Q30.741884 347.84274 30.84132 350.2182L30.973904 353.57697L34.001205 350.54965L34.63097 351.1794ZM36.84068 343.82108Q38.188602 345.169 38.387474 346.29596Q38.58635 347.40082 37.603027 348.38412Q36.641804 349.34537 35.536953 349.16858Q34.4321 348.9918 33.12837 347.73227L32.111904 346.71582Q30.775028 345.37894 30.587204 344.28513Q30.399378 343.16922 31.382698 342.1859Q32.35497 341.21362 33.448776 341.37936Q34.531532 341.53403 35.84631 342.82672L36.84068 343.82108ZM35.01767 343.54486Q34.0454 342.5726 33.327244 342.40686Q32.60909 342.21906 32.012466 342.81567Q31.426893 343.40125 31.60367 344.13043Q31.780447 344.83755 32.697475 345.75458L33.923862 346.98096Q34.896137 347.95325 35.647438 348.15213Q36.39874 348.3289 36.973263 347.75436Q37.53674 347.1909 37.37101 346.47275Q37.20528 345.75458 36.277203 344.8044L35.01767 343.54486ZM43.094154 342.71625L42.331806 343.47858L37.22738 338.37415L36.244057 340.48444L35.548 339.78836L36.91802 336.76108L37.028503 336.65057L43.094154 342.71625ZM42.851086 336.9047L40.155243 333.59015L43.248833 330.49655L43.95594 331.20364L41.514214 333.6454L42.972622 335.47943Q43.160446 334.7613 43.723923 334.1978Q44.541515 333.38022 45.58008 333.4465Q46.607594 333.50174 47.53567 334.42984Q48.46375 335.3579 48.49689 336.4075Q48.54109 337.44608 47.635105 338.35205Q46.83961 339.14755 45.889435 339.21384Q44.928215 339.26907 44.077477 338.55093L44.79563 337.83276Q45.392254 338.27472 45.955727 338.24158Q46.519203 338.20844 47.00534 337.7223Q47.53567 337.19196 47.480427 336.518Q47.425182 335.84402 46.784367 335.20322Q46.176697 334.59555 45.48064 334.5624Q44.78458 334.52927 44.232155 335.0817Q43.73497 335.5789 43.65763 336.07605L43.624485 336.44067L42.851086 336.9047ZM49.90006 331.40253L47.878174 333.4244L47.259457 332.8057L49.281338 330.7838L49.90006 331.40253ZM53.811245 326.85052Q55.15917 328.19846 55.35804 329.3254Q55.556915 330.43024 54.573593 331.41357Q53.61237 332.3748 52.507515 332.19803Q51.402664 332.02124 50.098934 330.76172L49.08247 329.74524Q47.745594 328.40836 47.55777 327.31458Q47.369946 326.19867 48.353264 325.21533Q49.325535 324.24307 50.419342 324.40878Q51.502098 324.56348 52.816875 325.85614L53.811245 326.85052ZM51.988235 326.5743Q51.015965 325.60205 50.29781 325.4363Q49.57965 325.24847 48.983032 325.8451Q48.397457 326.43066 48.574234 327.15988Q48.75101 327.86697 49.66804 328.78403L50.89443 330.0104Q51.866703 330.98267 52.618004 331.18155Q53.369305 331.35834 53.94383 330.7838Q54.5073 330.22034 54.341576 329.50217Q54.175846 328.78403 53.24777 327.83383L51.988235 326.5743ZM58.760994 323.0056L59.60068 322.16592L60.2194 322.78467L59.37971 323.62436L60.782875 325.02753L60.020527 325.78986L58.617363 324.3867L55.866276 327.1378L55.413284 326.68478L53.932777 319.8126L54.75037 318.995L58.760994 323.0056ZM56.12039 325.64624L57.998642 323.76797L55.037632 320.80698L55.103924 321.07214L56.12039 325.64624ZM61.920876 319.3817L59.89899 321.4036L59.280273 320.78488L61.30216 318.763L61.920876 319.3817ZM67.13579 318.6746L66.373436 319.43695L61.269012 314.33252L60.28569 316.44278L59.589634 315.74673L60.959652 312.71942L61.070137 312.60895L67.13579 318.6746ZM67.29047 311.7361L67.86499 311.1616Q68.40637 310.5981 68.439514 310.01254Q68.472664 309.42697 67.997574 308.95187Q66.93691 307.89124 65.87625 308.95187Q65.37907 309.44907 65.36802 310.03464Q65.36802 310.60916 65.83206 311.0732L65.05866 311.8466Q64.34051 311.12845 64.384705 310.13406Q64.43994 309.12866 65.24649 308.3221Q66.09722 307.47137 67.036354 307.43823Q67.97548 307.4051 68.78202 308.21164Q69.17977 308.60938 69.29025 309.2281Q69.40074 309.8468 69.14662 310.4766Q69.798485 310.13406 70.42825 310.23352Q71.06907 310.3219 71.5994 310.85223Q72.405945 311.65878 72.36175 312.67523Q72.3065 313.68066 71.45577 314.5314Q70.61608 315.3711 69.610664 315.44843Q68.616295 315.5147 67.86499 314.76343L68.63839 313.99002Q69.11348 314.46512 69.7101 314.443Q70.30672 314.4209 70.83705 313.8906Q71.38948 313.33817 71.38948 312.76364Q71.38948 312.167 70.8481 311.62564Q70.32882 311.10635 69.73219 311.15054Q69.12453 311.1837 68.49476 311.79135L67.920235 312.36588L67.29047 311.7361Z" fill-rule="nonzero"/><path fill="#757575" d="M74.59847 351.1794L70.6431 355.1348L70.09067 354.58237L69.85865 350.174Q69.79236 349.17963 69.64873 348.68243Q69.49405 348.17422 69.140495 347.82065Q68.665405 347.34558 68.079834 347.33453Q67.49426 347.30136 67.008125 347.7875Q66.44465 348.35098 66.455696 349.00284Q66.455696 349.64368 67.04127 350.22925L66.27892 350.99158Q65.43923 350.1519 65.46133 349.11334Q65.48342 348.05267 66.37836 347.15775Q67.229095 346.307 68.15717 346.26282Q69.08525 346.21863 69.8255 346.95886Q70.70939 347.84274 70.80882 350.2182L70.94141 353.57693L73.968704 350.54965L74.59847 351.1794ZM76.80818 343.82108Q78.156105 345.169 78.35498 346.29596Q78.55385 347.40082 77.57053 348.38412Q76.60931 349.34537 75.504456 349.16858Q74.3996 348.9918 73.09587 347.73227L72.07941 346.7158Q70.74253 345.37894 70.5547 344.28513Q70.36688 343.16922 71.350204 342.1859Q72.32247 341.21362 73.416275 341.37936Q74.49904 341.53403 75.81381 342.82672L76.80818 343.82108ZM74.98517 343.54486Q74.0129 342.5726 73.29475 342.40686Q72.57659 342.21906 71.979965 342.81567Q71.394394 343.40125 71.571175 344.13043Q71.74795 344.83755 72.66498 345.75458L73.891365 346.98096Q74.86364 347.95325 75.61494 348.1521Q76.36624 348.3289 76.940765 347.75436Q77.50424 347.1909 77.33851 346.47275Q77.17278 345.75458 76.244705 344.8044L74.98517 343.54486ZM83.06165 342.71622L82.29931 343.47858L77.19488 338.37415L76.21156 340.48444L75.5155 339.78836L76.88552 336.76108L76.99601 336.65057L83.06165 342.71622ZM82.81859 336.9047L80.12274 333.59015L83.21634 330.49655L83.92345 331.20364L81.48171 333.6454L82.940125 335.47943Q83.127945 334.7613 83.69142 334.1978Q84.50902 333.38022 85.54758 333.4465Q86.575096 333.50174 87.503174 334.4298Q88.43125 335.3579 88.46439 336.4075Q88.50859 337.44608 87.60261 338.35205Q86.80711 339.14755 85.85694 339.21384Q84.89571 339.26907 84.044975 338.55093L84.76313 337.83276Q85.35976 338.27472 85.92323 338.24158Q86.4867 338.20844 86.97284 337.7223Q87.503174 337.19196 87.44793 336.518Q87.392685 335.84402 86.75187 335.20322Q86.1442 334.59555 85.44814 334.5624Q84.75208 334.52927 84.19965 335.0817Q83.70247 335.57886 83.62513 336.07605L83.59199 336.44064L82.81859 336.9047ZM89.86756 331.40253L87.84567 333.4244L87.22696 332.8057L89.24884 330.7838L89.86756 331.40253ZM93.77875 326.85052Q95.12666 328.19846 95.32554 329.3254Q95.524414 330.43024 94.54109 331.41357Q93.57987 332.3748 92.47501 332.19803Q91.37016 332.02124 90.06644 330.76172L89.049965 329.74524Q87.7131 328.40836 87.52527 327.31458Q87.33744 326.19867 88.32076 325.21533Q89.29304 324.24307 90.38684 324.40878Q91.4696 324.56348 92.78438 325.85614L93.77875 326.85052ZM91.955734 326.5743Q90.98346 325.60205 90.265305 325.4363Q89.54715 325.24847 88.95053 325.8451Q88.36496 326.43066 88.54173 327.15988Q88.71851 327.86697 89.635544 328.78403L90.86193 330.0104Q91.8342 330.98267 92.5855 331.18155Q93.3368 331.35834 93.91132 330.7838Q94.4748 330.22034 94.309074 329.50217Q94.14335 328.78403 93.21527 327.83383L91.955734 326.5743ZM94.4969 319.21597L95.13772 319.85678L94.99409 320.00043Q94.12125 320.91745 94.1102 321.96707Q94.088104 323.0056 94.927795 324.0221Q94.87255 322.99457 95.69014 322.177Q96.47459 321.39255 97.502106 321.46988Q98.52962 321.5472 99.4135 322.4311Q100.341576 323.3592 100.39682 324.43088Q100.452065 325.5026 99.59028 326.36438Q98.72849 327.22617 97.5242 327.10464Q96.31991 326.961 95.270294 325.9114L94.98303 325.62415Q93.314705 323.9558 93.13793 322.3648Q92.96115 320.77383 94.35327 319.35962L94.4969 319.21597ZM96.20943 322.93933Q95.811676 323.3371 95.71224 323.90057Q95.6128 324.46405 95.84482 324.9612L96.12103 325.23743Q96.87234 325.98874 97.656784 326.11026Q98.45228 326.22076 98.94946 325.72357Q99.46874 325.20428 99.3914 324.53033Q99.30302 323.8453 98.684296 323.2266Q98.06558 322.60788 97.39162 322.53055Q96.70661 322.44214 96.20943 322.93933ZM101.888374 319.3817L99.86649 321.4036L99.24777 320.78488L101.26965 318.763L101.888374 319.3817ZM105.79956 314.8297Q107.147484 316.17764 107.34635 317.3046Q107.54523 318.40942 106.56191 319.39276Q105.600685 320.35397 104.495834 320.17722Q103.390976 320.00043 102.08725 318.7409L101.070786 317.72443Q99.73391 316.38754 99.54608 315.29373Q99.35826 314.17786 100.341576 313.19452Q101.31385 312.22226 102.40765 312.38797Q103.49041 312.54266 104.80519 313.83533L105.79956 314.8297ZM103.97655 314.5535Q103.00428 313.5812 102.286125 313.4155Q101.56797 313.22766 100.971344 313.82428Q100.38577 314.40985 100.56255 315.13907Q100.73933 315.84616 101.65636 316.7632L102.882744 317.9896Q103.85502 318.96185 104.606316 319.16074Q105.35762 319.33752 105.932144 318.763Q106.49562 318.19952 106.32989 317.48135Q106.16416 316.7632 105.236084 315.81302L103.97655 314.5535ZM109.82123 310.65335Q109.87647 311.17264 109.71075 311.69193Q109.54501 312.18912 109.14727 312.58685Q108.62798 313.10614 107.98717 313.2387Q107.34635 313.3713 106.67239 313.1172Q105.98738 312.85202 105.42391 312.28854Q104.827286 311.69193 104.562126 310.9848Q104.30801 310.26666 104.47373 309.5927Q104.639465 308.89664 105.202934 308.33316Q106.09787 307.43823 107.28007 307.60397Q108.473305 307.75864 109.62235 308.90768L109.84332 309.12866Q111.61109 310.89642 111.72158 312.39902Q111.83206 313.90164 110.451 315.3269L110.29632 315.48157L109.6555 314.84076L109.82123 314.67502Q110.749306 313.70276 110.782455 312.71942Q110.8156 311.7361 109.82123 310.65335ZM108.63904 311.83554Q109.025734 311.44885 109.11412 310.89642Q109.20251 310.3219 109.01469 309.8247L108.70533 309.51535Q107.954025 308.76407 107.147484 308.62042Q106.340935 308.4768 105.84375 308.97397Q105.33552 309.4822 105.41286 310.17828Q105.50125 310.86328 106.14207 311.5041Q106.76078 312.1228 107.44579 312.2333Q108.14185 312.33273 108.63904 311.83554Z" fill-rule="nonzero"/><path fill="#757575" d="M114.56597 351.1794L110.610596 355.1348L110.05817 354.58237L109.82615 350.174Q109.75986 349.17963 109.61623 348.68243Q109.46155 348.17422 109.107994 347.82065Q108.632904 347.34558 108.04733 347.33453Q107.46176 347.3014 106.975624 347.7875Q106.41215 348.35098 106.423195 349.00284Q106.423195 349.64368 107.008766 350.22925L106.24642 350.99158Q105.40673 350.15192 105.428825 349.11334Q105.45092 348.05267 106.345856 347.15775Q107.196594 346.307 108.12467 346.26282Q109.05275 346.21863 109.793 346.95886Q110.67689 347.84274 110.77632 350.2182L110.908905 353.57693L113.9362 350.54965L114.56597 351.1794ZM116.77568 343.82108Q118.123604 345.169 118.32248 346.29596Q118.52135 347.40082 117.53803 348.38412Q116.576805 349.34537 115.471954 349.16858Q114.367096 348.9918 113.06337 347.73227L112.046906 346.7158Q110.71003 345.37894 110.5222 344.28513Q110.33438 343.16922 111.3177 342.1859Q112.28997 341.21362 113.38377 341.37936Q114.46654 341.53403 115.78131 342.82672L116.77568 343.82108ZM114.95267 343.54486Q113.9804 342.5726 113.262245 342.40686Q112.54409 342.21906 111.947464 342.81567Q111.36189 343.40125 111.53867 344.13043Q111.71545 344.83755 112.63248 345.75458L113.858864 346.98096Q114.83114 347.95325 115.582436 348.15213Q116.33374 348.3289 116.908264 347.75436Q117.47174 347.1909 117.30601 346.47275Q117.14028 345.75458 116.212204 344.8044L114.95267 343.54486ZM123.02916 342.71622L122.26681 343.47858L117.16238 338.37415L116.17906 340.48444L115.483 339.78836L116.85302 336.76108L116.96351 336.65057L123.02916 342.71622ZM122.78609 336.9047L120.09024 333.59015L123.18384 330.49655L123.890945 331.20364L121.44921 333.6454L122.90762 335.47943Q123.09544 334.7613 123.65892 334.1978Q124.47652 333.38022 125.515076 333.4465Q126.542595 333.50174 127.47067 334.4298Q128.39874 335.3579 128.4319 336.4075Q128.47609 337.44608 127.57011 338.35205Q126.77461 339.14755 125.82444 339.21384Q124.86321 339.26907 124.012474 338.55093L124.73063 337.83276Q125.327255 338.27472 125.89073 338.24158Q126.4542 338.20844 126.94034 337.7223Q127.47067 337.19196 127.41543 336.518Q127.36018 335.84402 126.71937 335.20322Q126.1117 334.59555 125.41564 334.5624Q124.71958 334.52927 124.16715 335.0817Q123.669975 335.57886 123.59263 336.07605L123.55949 336.44067L122.78609 336.9047ZM129.83505 331.40253L127.81318 333.4244L127.19446 332.8057L129.21634 330.7838L129.83505 331.40253ZM133.74625 326.85052Q135.09416 328.19846 135.29305 329.3254Q135.49191 330.43024 134.50859 331.41357Q133.54736 332.3748 132.44252 332.19803Q131.33766 332.02124 130.03394 330.76172L129.01747 329.74524Q127.680595 328.40836 127.49277 327.31458Q127.30494 326.19867 128.28827 325.21533Q129.26053 324.24307 130.35434 324.40878Q131.4371 324.56348 132.75188 325.85614L133.74625 326.85052ZM131.92323 326.5743Q130.95096 325.60205 130.2328 325.4363Q129.51465 325.24847 128.91803 325.8451Q128.33246 326.43066 128.50923 327.15988Q128.686 327.867 129.60304 328.78403L130.82942 330.0104Q131.8017 330.98267 132.553 331.18155Q133.3043 331.35834 133.87883 330.7838Q134.4423 330.22034 134.27658 329.50217Q134.11084 328.78403 133.18277 327.83383L131.92323 326.5743ZM137.76791 322.67416Q137.82315 323.19345 137.65742 323.71274Q137.4917 324.20993 137.09395 324.60767Q136.57468 325.12695 135.93385 325.25952Q135.29305 325.39212 134.61908 325.138Q133.93407 324.87283 133.37059 324.30936Q132.77397 323.71274 132.5088 323.0056Q132.25468 322.28748 132.42043 321.61353Q132.58615 320.91745 133.14963 320.35397Q134.04456 319.45905 135.22675 319.6248Q136.42 319.77945 137.56905 320.9285L137.79001 321.14948Q139.55777 322.91724 139.66826 324.41983Q139.77875 325.92245 138.39767 327.34772L138.243 327.50238L137.60219 326.86157L137.76791 326.69583Q138.69598 325.72357 138.72914 324.74026Q138.76228 323.75693 137.76791 322.67416ZM136.58572 323.85635Q136.97241 323.46967 137.0608 322.91724Q137.1492 322.3427 136.96136 321.84552L136.65201 321.53616Q135.90071 320.78488 135.09416 320.64124Q134.28763 320.49762 133.79044 320.99478Q133.28221 321.50302 133.35954 322.1991Q133.44794 322.8841 134.08875 323.5249Q134.70747 324.14362 135.39247 324.25412Q136.08853 324.35355 136.58572 323.85635ZM141.85588 319.3817L139.83398 321.4036L139.21527 320.78488L141.23715 318.763L141.85588 319.3817ZM148.5071 317.23828L144.55171 321.19366L143.9993 320.64124L143.76727 316.23288Q143.70097 315.2385 143.55734 314.74133Q143.40266 314.2331 143.04912 313.87955Q142.57404 313.40445 141.98845 313.3934Q141.40288 313.36026 140.91675 313.84637Q140.35327 314.40985 140.36432 315.06174Q140.36432 315.70255 140.94989 316.28812L140.18755 317.05048Q139.34785 316.2108 139.36995 315.1722Q139.39204 314.11154 140.28699 313.2166Q141.13773 312.36588 142.0658 312.3217Q142.99388 312.2775 143.73413 313.01776Q144.61801 313.90164 144.71745 316.27707L144.85004 319.63583L147.87733 316.60852L148.5071 317.23828ZM148.70598 308.11218Q149.15897 308.5652 149.26944 309.1618Q149.37993 309.75842 149.18106 310.35504Q149.84396 310.08987 150.51793 310.21143Q151.18085 310.3219 151.67802 310.8191Q152.45143 311.5925 152.39618 312.5979Q152.34094 313.5812 151.47916 314.44302Q150.60632 315.31586 149.61195 315.38214Q148.61758 315.42633 147.84418 314.65292Q147.347 314.15576 147.22546 313.50388Q147.09288 312.84097 147.3691 312.16702Q146.77248 312.36588 146.1869 312.24435Q145.60133 312.1228 145.14835 311.66983Q144.38599 310.90747 144.43019 309.9794Q144.46333 309.04028 145.26987 308.23373Q146.06537 307.43823 147.0045 307.4051Q147.94362 307.34985 148.70598 308.11218ZM150.89359 311.55933Q150.38535 311.05112 149.75558 311.06216Q149.11476 311.06216 148.59549 311.58142Q148.0762 312.1007 148.0762 312.74155Q148.0762 313.36026 148.59549 313.87955Q149.10371 314.38776 149.7114 314.3767Q150.30801 314.3546 150.8494 313.81323Q151.37971 313.2829 151.39076 312.67523Q151.40181 312.06757 150.89359 311.55933ZM145.89964 308.8635Q145.44666 309.3165 145.44666 309.89102Q145.44666 310.44345 145.93279 310.92957Q146.38577 311.38257 146.94925 311.39362Q147.51273 311.40466 147.96571 310.95166Q148.42976 310.48764 148.41872 309.92416Q148.40765 309.3607 147.95467 308.90768Q147.49063 308.44366 146.9161 308.44366Q146.33054 308.4326 145.89964 308.8635Z" fill-rule="nonzero"/><path fill="#757575" d="M154.53348 351.1794L150.5781 355.1348L150.02567 354.58237L149.79364 350.174Q149.72736 349.17963 149.58372 348.68243Q149.42905 348.17422 149.07549 347.82065Q148.6004 347.34558 148.01483 347.33453Q147.42926 347.3014 146.94312 347.7875Q146.37964 348.35098 146.3907 349.00287Q146.3907 349.64368 146.97627 350.22925L146.21391 350.99158Q145.37422 350.15192 145.39633 349.11334Q145.41843 348.05267 146.31335 347.15775Q147.1641 346.307 148.09216 346.26282Q149.02025 346.21863 149.7605 346.95886Q150.64438 347.84274 150.74382 350.2182L150.8764 353.57697L153.9037 350.54965L154.53348 351.1794ZM156.74318 343.82108Q158.0911 345.169 158.28998 346.29596Q158.48885 347.40082 157.50552 348.38412Q156.54431 349.34537 155.43945 349.16858Q154.3346 348.9918 153.03087 347.73227L152.0144 346.71582Q150.67754 345.37894 150.4897 344.28513Q150.30188 343.16922 151.2852 342.1859Q152.25748 341.21362 153.35127 341.37936Q154.43404 341.53403 155.74881 342.82672L156.74318 343.82108ZM154.92017 343.54486Q153.94789 342.5726 153.22974 342.40686Q152.51158 342.21906 151.91496 342.81567Q151.32939 343.40125 151.50616 344.13043Q151.68295 344.83755 152.59998 345.75458L153.82637 346.98096Q154.79863 347.95325 155.54994 348.15213Q156.30124 348.3289 156.87576 347.75436Q157.43924 347.1909 157.27351 346.47275Q157.10779 345.75458 156.1797 344.8044L154.92017 343.54486ZM162.99666 342.71625L162.2343 343.47858L157.12988 338.37415L156.14656 340.48444L155.4505 339.78836L156.82053 336.76108L156.931 336.65057L162.99666 342.71625ZM162.75359 336.9047L160.05774 333.59015L163.15134 330.49655L163.85844 331.20364L161.41672 333.6454L162.87512 335.47943Q163.06294 334.7613 163.62642 334.1978Q164.44402 333.38022 165.48257 333.4465Q166.51009 333.50174 167.43817 334.42984Q168.36624 335.3579 168.3994 336.4075Q168.44359 337.44608 167.53761 338.35205Q166.74211 339.14755 165.79193 339.21384Q164.83072 339.26907 163.97998 338.55093L164.69814 337.83276Q165.29475 338.27472 165.85823 338.24158Q166.4217 338.20844 166.90784 337.7223Q167.43817 337.19196 167.38292 336.518Q167.32768 335.84402 166.68687 335.20322Q166.0792 334.59555 165.38313 334.5624Q164.68709 334.52927 164.13466 335.0817Q163.63747 335.5789 163.56013 336.07605L163.527 336.44067L162.75359 336.9047ZM169.80255 331.40253L167.78067 333.4244L167.16196 332.8057L169.18384 330.7838L169.80255 331.40253ZM175.01747 330.6954L174.25513 331.45776L169.1507 326.35333L168.16737 328.46362L167.47131 327.76755L168.84134 324.74026L168.95181 324.62976L175.01747 330.6954ZM179.96722 325.74567L179.20486 326.50803L174.10045 321.4036L173.11713 323.51385L172.42107 322.8178L173.79108 319.7905L173.90157 319.68002L179.96722 325.74567ZM181.82338 319.3817L179.80148 321.4036L179.18277 320.78488L181.20465 318.763L181.82338 319.3817ZM188.4746 317.23828L184.51921 321.19366L183.9668 320.64124L183.73477 316.23288Q183.66847 315.2385 183.52484 314.74133Q183.37016 314.2331 183.01662 313.87955Q182.54153 313.40445 181.95596 313.3934Q181.37038 313.36026 180.88425 313.84637Q180.32077 314.40985 180.33182 315.06174Q180.33182 315.70255 180.91739 316.28812L180.15504 317.05048Q179.31535 316.2108 179.33745 315.1722Q179.35954 314.11154 180.25449 313.2166Q181.10522 312.36588 182.0333 312.3217Q182.96138 312.2775 183.70163 313.01776Q184.58551 313.90164 184.68495 316.27707L184.81754 319.63583L187.84483 316.60852L188.4746 317.23828ZM187.19296 311.7361L187.76749 311.1616Q188.30887 310.5981 188.34201 310.01254Q188.37515 309.42697 187.90007 308.95187Q186.83942 307.89124 185.77875 308.95187Q185.28157 309.44907 185.27052 310.03464Q185.27052 310.60916 185.73456 311.0732L184.96117 311.8466Q184.24301 311.12845 184.2872 310.13406Q184.34244 309.12866 185.14899 308.3221Q185.99973 307.47137 186.93884 307.43823Q187.87798 307.4051 188.68452 308.21164Q189.08226 308.60938 189.19275 309.2281Q189.30324 309.8468 189.04912 310.4766Q189.70099 310.13406 190.33075 310.23352Q190.97157 310.3219 191.50189 310.85223Q192.30844 311.65878 192.26425 312.67523Q192.209 313.68066 191.35826 314.5314Q190.51857 315.3711 189.51315 315.44843Q188.51878 315.5147 187.76749 314.76343L188.5409 313.99002Q189.01598 314.46512 189.6126 314.44302Q190.20921 314.4209 190.73955 313.8906Q191.29198 313.33817 191.29198 312.76364Q191.29198 312.16702 190.7506 311.62564Q190.23131 311.10635 189.63469 311.15054Q189.02702 311.1837 188.39726 311.79135L187.82274 312.36588L187.19296 311.7361Z" fill-rule="nonzero"/><path fill="#757575" d="M194.50098 351.1794L190.5456 355.1348L189.99316 354.58237L189.76114 350.174Q189.69485 349.17963 189.55122 348.68243Q189.39655 348.17422 189.04298 347.82065Q188.5679 347.34558 187.98233 347.33453Q187.39676 347.3014 186.91061 347.7875Q186.34714 348.35098 186.3582 349.00287Q186.3582 349.64368 186.94377 350.22925L186.18141 350.99158Q185.34172 350.15192 185.36383 349.11334Q185.38593 348.05267 186.28085 347.15775Q187.13159 346.307 188.05966 346.26282Q188.98775 346.21863 189.728 346.95886Q190.61188 347.84274 190.71132 350.2182L190.8439 353.57697L193.8712 350.54965L194.50098 351.1794ZM196.71068 343.82108Q198.0586 345.169 198.25748 346.29596Q198.45634 347.40082 197.47302 348.38412Q196.51181 349.34537 195.40695 349.16858Q194.3021 348.9918 192.99837 347.73227L191.9819 346.71582Q190.64503 345.37894 190.4572 344.28513Q190.26938 343.16922 191.2527 342.1859Q192.22498 341.21362 193.31877 341.37936Q194.40154 341.53403 195.71631 342.82672L196.71068 343.82108ZM194.88766 343.54486Q193.91539 342.5726 193.19724 342.40686Q192.47908 342.21906 191.88246 342.81567Q191.29689 343.40125 191.47366 344.13043Q191.65045 344.83755 192.56747 345.75458L193.79387 346.98096Q194.76613 347.95325 195.51744 348.15213Q196.26874 348.3289 196.84326 347.75436Q197.40674 347.1909 197.24101 346.47275Q197.07529 345.75458 196.1472 344.8044L194.88766 343.54486ZM202.96416 342.71625L202.2018 343.47858L197.09738 338.37415L196.11406 340.48444L195.418 339.78836L196.78802 336.76108L196.8985 336.65057L202.96416 342.71625ZM202.37859 331.2368L203.0194 331.87762L202.87576 332.02124Q202.00293 332.93826 201.99188 333.98788Q201.96979 335.02646 202.80948 336.0429Q202.75423 335.0154 203.57182 334.1978Q204.35628 333.41336 205.38379 333.4907Q206.4113 333.56805 207.29518 334.45193Q208.22327 335.38 208.2785 336.45172Q208.33374 337.5234 207.47195 338.3852Q206.61017 339.24698 205.40588 339.12546Q204.20158 338.9818 203.15198 337.93222L202.86472 337.64496Q201.19638 335.97662 201.0196 334.38562Q200.84283 332.79465 202.23495 331.38043L202.37859 331.2368ZM204.09111 334.96014Q203.69336 335.3579 203.59392 335.9214Q203.49449 336.48486 203.7265 336.98203L204.00272 337.25824Q204.75401 338.00955 205.53847 338.13107Q206.33395 338.24158 206.83115 337.7444Q207.35043 337.2251 207.27309 336.55115Q207.1847 335.86615 206.56598 335.2474Q205.94727 334.6287 205.2733 334.55136Q204.58829 334.46298 204.09111 334.96014ZM209.77005 331.40253L207.74817 333.4244L207.12946 332.8057L209.15134 330.7838L209.77005 331.40253ZM213.68124 326.85052Q215.02916 328.19846 215.22804 329.3254Q215.42691 330.43027 214.44359 331.41357Q213.48236 332.3748 212.37752 332.19803Q211.27266 332.02124 209.96893 330.76172L208.95247 329.74524Q207.61559 328.40836 207.42776 327.31458Q207.23994 326.19867 208.22327 325.21533Q209.19553 324.24307 210.28934 324.40878Q211.3721 324.56348 212.68687 325.85617L213.68124 326.85052ZM211.85823 326.5743Q210.88596 325.60205 210.1678 325.4363Q209.44965 325.24847 208.85303 325.8451Q208.26746 326.4307 208.44423 327.15988Q208.621 327.867 209.53804 328.78403L210.76442 330.0104Q211.7367 330.98267 212.48799 331.18155Q213.2393 331.35834 213.81383 330.7838Q214.3773 330.22034 214.21158 329.50217Q214.04584 328.78403 213.11777 327.83383L211.85823 326.5743ZM221.37103 324.30936L217.41565 328.26474L216.86322 327.7123L216.6312 323.30396Q216.56491 322.30957 216.42128 321.81238Q216.2666 321.30417 215.91304 320.9506Q215.43796 320.47552 214.85239 320.46448Q214.26682 320.43134 213.78069 320.91745Q213.21721 321.48093 213.22826 322.13278Q213.22826 322.77362 213.81383 323.3592L213.05147 324.12152Q212.21179 323.28186 212.23389 322.2433Q212.25598 321.18262 213.15091 320.2877Q214.00165 319.43695 214.92973 319.39276Q215.8578 319.34857 216.59805 320.0888Q217.48193 320.9727 217.58138 323.34814L217.71396 326.70688L220.74126 323.6796L221.37103 324.30936ZM221.79088 319.3817L219.76898 321.4036L219.15027 320.78488L221.17215 318.763L221.79088 319.3817ZM227.00578 318.6746L226.24344 319.43695L221.139 314.33252L220.15569 316.4428L219.45963 315.74673L220.82965 312.71945L220.94014 312.60895L227.00578 318.6746ZM227.73499 306.7422L230.83963 314.84076L230.03308 315.6473L227.11627 307.75864L223.85695 311.01797L223.22719 310.38818L227.3041 306.31128L227.73499 306.7422Z" fill-rule="nonzero"/><path fill="#757575" d="M234.46848 351.1794L230.51309 355.1348L229.96066 354.58237L229.72864 350.174Q229.66235 349.17963 229.51872 348.68243Q229.36404 348.17422 229.01048 347.82065Q228.5354 347.34558 227.94983 347.33453Q227.36426 347.3014 226.87811 347.7875Q226.31465 348.35098 226.3257 349.00287Q226.3257 349.64368 226.91127 350.22925L226.14891 350.9916Q225.30922 350.15192 225.33133 349.11334Q225.35342 348.05267 226.24835 347.15775Q227.09909 346.307 228.02716 346.26282Q228.95525 346.21863 229.6955 346.95886Q230.57938 347.84277 230.67882 350.2182L230.8114 353.57697L233.8387 350.54965L234.46848 351.1794ZM236.67818 343.82108Q238.0261 345.169 238.22498 346.29596Q238.42384 347.40082 237.44052 348.38412Q236.47931 349.34537 235.37445 349.16858Q234.26959 348.99182 232.96587 347.73227L231.9494 346.71582Q230.61253 345.37894 230.4247 344.28513Q230.23688 343.16922 231.2202 342.1859Q232.19247 341.21362 233.28627 341.37936Q234.36903 341.53403 235.6838 342.82672L236.67818 343.82108ZM234.85516 343.54486Q233.88289 342.5726 233.16473 342.40686Q232.44658 342.21906 231.84996 342.81567Q231.26439 343.40125 231.44116 344.13046Q231.61795 344.83755 232.53497 345.75458L233.76137 346.98096Q234.73363 347.95325 235.48494 348.15213Q236.23624 348.3289 236.81076 347.75436Q237.37424 347.1909 237.20851 346.47275Q237.04279 345.75458 236.1147 344.8044L234.85516 343.54486ZM242.93166 342.71625L242.1693 343.47858L237.06488 338.37415L236.08156 340.48444L235.3855 339.78836L236.75552 336.76108L236.866 336.65057L242.93166 342.71625ZM242.34608 331.2368L242.9869 331.87762L242.84326 332.02124Q241.97043 332.93826 241.95938 333.98788Q241.93729 335.02646 242.77698 336.0429Q242.72173 335.0154 243.53932 334.1978Q244.32378 333.41336 245.35129 333.4907Q246.3788 333.56805 247.26268 334.45193Q248.19077 335.38 248.246 336.45172Q248.30124 337.5234 247.43945 338.3852Q246.57767 339.24698 245.37338 339.12546Q244.16908 338.9818 243.11948 337.93222L242.83221 337.64496Q241.16388 335.97662 240.9871 334.38562Q240.81033 332.79465 242.20245 331.38043L242.34608 331.2368ZM244.05861 334.96014Q243.66086 335.3579 243.56142 335.9214Q243.46199 336.48486 243.694 336.98203L243.97021 337.25824Q244.72151 338.00955 245.50597 338.1311Q246.30145 338.24158 246.79865 337.7444Q247.31793 337.2251 247.24059 336.55115Q247.15219 335.86615 246.53348 335.2474Q245.91476 334.6287 245.2408 334.55136Q244.55579 334.46298 244.05861 334.96014ZM249.73755 331.40253L247.71567 333.4244L247.09695 332.8057L249.11884 330.7838L249.73755 331.40253ZM253.64874 326.85052Q254.99666 328.19846 255.19554 329.3254Q255.39441 330.43027 254.41109 331.41357Q253.44986 332.3748 252.34502 332.19803Q251.24016 332.02124 249.93643 330.76172L248.91997 329.74524Q247.58308 328.40836 247.39526 327.31458Q247.20744 326.19867 248.19077 325.21533Q249.16302 324.24307 250.25684 324.40878Q251.3396 324.56348 252.65437 325.85617L253.64874 326.85052ZM251.82573 326.5743Q250.85345 325.60205 250.1353 325.4363Q249.41714 325.24847 248.82053 325.84512Q248.23495 326.4307 248.41173 327.15988Q248.5885 327.867 249.50554 328.78403L250.73192 330.0104Q251.7042 330.98267 252.4555 331.18155Q253.2068 331.35834 253.78133 330.7838Q254.3448 330.22034 254.17908 329.50217Q254.01334 328.78403 253.08527 327.83383L251.82573 326.5743ZM254.3669 319.21597L255.0077 319.8568L254.86407 320.00043Q253.99124 320.91745 253.9802 321.96707Q253.9581 323.00565 254.79779 324.0221Q254.74255 322.9946 255.56013 322.177Q256.34457 321.39255 257.3721 321.46988Q258.39963 321.5472 259.2835 322.43112Q260.21158 323.3592 260.2668 324.4309Q260.32205 325.5026 259.46027 326.36438Q258.59848 327.22617 257.3942 327.10464Q256.1899 326.961 255.14029 325.9114L254.85303 325.62415Q253.18471 323.9558 253.00792 322.3648Q252.83115 320.77383 254.22327 319.35962L254.3669 319.21597ZM256.0794 322.93933Q255.68167 323.3371 255.58223 323.90057Q255.4828 324.46405 255.71481 324.9612L255.99103 325.23743Q256.74234 325.98874 257.5268 326.11026Q258.32227 326.22076 258.81946 325.72357Q259.33875 325.20428 259.2614 324.53033Q259.173 323.84534 258.5543 323.2266Q257.93558 322.60788 257.26163 322.53055Q256.5766 322.44217 256.0794 322.93933ZM261.75836 319.3817L259.73648 321.4036L259.11777 320.78488L261.13965 318.763L261.75836 319.3817ZM268.4096 317.23828L264.45422 321.19366L263.9018 320.64124L263.66977 316.23288Q263.6035 315.2385 263.45984 314.74133Q263.30518 314.2331 262.9516 313.87955Q262.47653 313.40445 261.89096 313.3934Q261.3054 313.36026 260.81924 313.8464Q260.25577 314.40985 260.2668 315.06174Q260.2668 315.70255 260.8524 316.28812L260.09003 317.05048Q259.25037 316.2108 259.27246 315.1722Q259.29456 314.11154 260.18948 313.2166Q261.04022 312.36588 261.9683 312.3217Q262.89636 312.2775 263.63663 313.01776Q264.5205 313.90164 264.61993 316.27707L264.75253 319.63583L267.77982 316.60852L268.4096 317.23828ZM267.70248 306.7422L270.80713 314.84076L270.00058 315.6473L267.08377 307.75864L263.82446 311.01797L263.19467 310.38818L267.2716 306.31128L267.70248 306.7422Z" fill-rule="nonzero"/><path fill="#757575" d="M274.43597 351.1794L270.4806 355.1348L269.92816 354.58237L269.69614 350.174Q269.62985 349.17963 269.4862 348.68243Q269.33154 348.17422 268.978 347.82065Q268.5029 347.34558 267.91733 347.33453Q267.33176 347.3014 266.8456 347.7875Q266.28214 348.35098 266.29318 349.00287Q266.29318 349.64368 266.87875 350.22925L266.11642 350.9916Q265.27673 350.15192 265.29883 349.11334Q265.32092 348.05267 266.21585 347.15775Q267.0666 346.307 267.99466 346.26282Q268.92276 346.21863 269.663 346.95886Q270.54688 347.84277 270.64633 350.2182L270.7789 353.57697L273.8062 350.54965L274.43597 351.1794ZM276.6457 343.82108Q277.9936 345.169 278.19247 346.29596Q278.39136 347.40082 277.40802 348.38412Q276.4468 349.34537 275.34195 349.16858Q274.2371 348.99182 272.93338 347.73227L271.9169 346.71582Q270.58002 345.37894 270.3922 344.28513Q270.20438 343.16922 271.18768 342.1859Q272.15997 341.21362 273.25378 341.37936Q274.33652 341.53403 275.6513 342.82672L276.6457 343.82108ZM274.82266 343.54486Q273.8504 342.5726 273.13223 342.4069Q272.4141 342.21906 271.81747 342.81567Q271.2319 343.40125 271.40866 344.13046Q271.58545 344.83755 272.50247 345.75458L273.72885 346.981Q274.70114 347.95325 275.45242 348.15213Q276.20374 348.3289 276.77826 347.75436Q277.34174 347.1909 277.176 346.47275Q277.01028 345.75458 276.0822 344.8044L274.82266 343.54486ZM282.89914 342.71625L282.1368 343.47858L277.03238 338.37415L276.04904 340.48444L275.353 339.78836L276.72302 336.76108L276.8335 336.65057L282.89914 342.71625ZM282.31357 331.2368L282.9544 331.87762L282.81076 332.02124Q281.93793 332.93826 281.92688 333.98788Q281.9048 335.02646 282.74448 336.0429Q282.68924 335.0154 283.50684 334.1978Q284.29126 333.41336 285.3188 333.4907Q286.34628 333.56805 287.2302 334.45193Q288.15826 335.38 288.2135 336.45172Q288.26874 337.5234 287.40695 338.3852Q286.54517 339.24698 285.34088 339.12546Q284.1366 338.98184 283.08698 337.93222L282.7997 337.64496Q281.13138 335.97662 280.95462 334.38562Q280.77783 332.79465 282.16995 331.38043L282.31357 331.2368ZM284.0261 334.96014Q283.62836 335.3579 283.52893 335.9214Q283.42947 336.48486 283.6615 336.98206L283.9377 337.25824Q284.68903 338.00955 285.47345 338.1311Q286.26895 338.24158 286.76614 337.7444Q287.28543 337.2251 287.2081 336.55115Q287.1197 335.86615 286.50098 335.2474Q285.88226 334.6287 285.2083 334.55136Q284.5233 334.46298 284.0261 334.96014ZM289.70505 331.40253L287.68317 333.4244L287.06445 332.8057L289.08633 330.7838L289.70505 331.40253ZM293.61624 326.85052Q294.96417 328.19846 295.16302 329.3254Q295.3619 330.43027 294.3786 331.41357Q293.41736 332.3748 292.3125 332.19803Q291.20767 332.02124 289.90393 330.76172L288.88745 329.74524Q287.5506 328.4084 287.36276 327.31458Q287.17493 326.19867 288.15826 325.21533Q289.13052 324.24307 290.22433 324.4088Q291.3071 324.56348 292.62186 325.85617L293.61624 326.85052ZM291.79324 326.5743Q290.82095 325.60205 290.1028 325.4363Q289.38464 325.24847 288.78802 325.84512Q288.20245 326.4307 288.37924 327.15988Q288.556 327.867 289.47302 328.78403L290.69943 330.0104Q291.6717 330.9827 292.423 331.18155Q293.1743 331.35834 293.7488 330.7838Q294.3123 330.22034 294.14658 329.50217Q293.98083 328.78403 293.05276 327.83383L291.79324 326.5743ZM297.6379 322.67416Q297.69315 323.19345 297.52744 323.71274Q297.3617 324.20993 296.96396 324.60767Q296.44467 325.12695 295.80386 325.25952Q295.16302 325.39212 294.48907 325.138Q293.80408 324.87283 293.2406 324.30936Q292.64398 323.71274 292.3788 323.00565Q292.1247 322.28748 292.2904 321.61353Q292.45615 320.91745 293.01962 320.35397Q293.91455 319.45905 295.09674 319.6248Q296.28998 319.77945 297.43903 320.9285L297.66 321.14948Q299.42776 322.91724 299.53827 324.41986Q299.64874 325.92245 298.26767 327.34772L298.113 327.50238L297.47217 326.86157L297.6379 326.69586Q298.56598 325.72357 298.59912 324.74026Q298.63226 323.75693 297.6379 322.67416ZM296.45572 323.85638Q296.8424 323.46967 296.93082 322.91724Q297.0192 322.3427 296.83136 321.84555L296.522 321.53616Q295.7707 320.78488 294.96417 320.64124Q294.15762 320.49762 293.66043 320.9948Q293.1522 321.50302 293.22955 322.1991Q293.31793 322.8841 293.95874 323.5249Q294.57745 324.14365 295.26248 324.25412Q295.95853 324.35355 296.45572 323.85638ZM301.72586 319.3817L299.70398 321.4036L299.08527 320.78488L301.10715 318.763L301.72586 319.3817ZM302.14572 316.68585L302.72025 316.11133Q303.26163 315.54785 303.29477 314.96228Q303.3279 314.3767 302.8528 313.90164Q301.79218 312.84097 300.7315 313.90164Q300.2343 314.3988 300.22327 314.9844Q300.22327 315.55893 300.68732 316.02295L299.9139 316.79636Q299.19574 316.0782 299.23996 315.08383Q299.2952 314.0784 300.10175 313.27188Q300.95248 312.42114 301.8916 312.38797Q302.83072 312.35483 303.63727 313.16138Q304.035 313.55914 304.1455 314.17786Q304.25598 314.79657 304.00186 315.42633Q304.65375 315.08383 305.2835 315.18326Q305.92432 315.27167 306.45465 315.80197Q307.2612 316.60852 307.217 317.625Q307.16174 318.6304 306.311 319.48114Q305.4713 320.32083 304.4659 320.39816Q303.47153 320.46448 302.72025 319.71317L303.49365 318.93976Q303.96872 319.41486 304.56534 319.39276Q305.16196 319.37067 305.6923 318.84033Q306.24472 318.2879 306.24472 317.71338Q306.24472 317.11676 305.70334 316.57538Q305.18405 316.0561 304.58743 316.10028Q303.97977 316.13345 303.35 316.74112L302.77548 317.31564L302.14572 316.68585ZM310.5868 309.87997Q311.93472 311.22787 312.1336 312.35483Q312.33246 313.4597 311.34915 314.44302Q310.38794 315.40424 309.28308 315.22745Q308.17822 315.0507 306.87448 313.79114L305.85803 312.7747Q304.52115 311.4378 304.3333 310.344Q304.1455 309.2281 305.1288 308.24478Q306.1011 307.27252 307.1949 307.43823Q308.27765 307.59293 309.59244 308.8856L310.5868 309.87997ZM308.7638 309.60376Q307.79153 308.63147 307.07336 308.46576Q306.35522 308.27792 305.75858 308.87454Q305.173 309.4601 305.3498 310.18933Q305.52658 310.89642 306.4436 311.81345L307.66998 313.03986Q308.64227 314.01212 309.39355 314.211Q310.14487 314.38776 310.7194 313.81323Q311.28287 313.24976 311.11713 312.53162Q310.95142 311.81345 310.02332 310.86328L308.7638 309.60376Z" fill-rule="nonzero"/><path fill="#757575" d="M314.40347 351.1794L310.4481 355.1348L309.89566 354.58237L309.66364 350.174Q309.59735 349.17963 309.4537 348.68246Q309.29904 348.17422 308.9455 347.82065Q308.4704 347.34558 307.88483 347.33453Q307.29926 347.3014 306.8131 347.7875Q306.24963 348.35098 306.26068 349.00287Q306.26068 349.64368 306.84625 350.22925L306.08392 350.9916Q305.24423 350.15192 305.26633 349.11334Q305.28842 348.05267 306.18335 347.15775Q307.0341 346.307 307.96216 346.26282Q308.89026 346.21863 309.6305 346.95886Q310.51437 347.84277 310.61383 350.2182L310.7464 353.57697L313.7737 350.54965L314.40347 351.1794ZM316.6132 343.82108Q317.9611 345.169 318.15997 346.29596Q318.35886 347.40082 317.37552 348.38412Q316.4143 349.34537 315.30945 349.16858Q314.2046 348.99182 312.90088 347.73227L311.8844 346.71582Q310.54752 345.37894 310.3597 344.28513Q310.17188 343.16922 311.15518 342.1859Q312.12747 341.21362 313.22128 341.37936Q314.30402 341.53403 315.6188 342.82672L316.6132 343.82108ZM314.79016 343.5449Q313.8179 342.5726 313.09973 342.4069Q312.3816 342.21906 311.78497 342.81567Q311.1994 343.40125 311.37616 344.13046Q311.55295 344.83755 312.46997 345.75458L313.69635 346.981Q314.66864 347.95325 315.41992 348.15213Q316.17123 348.3289 316.74576 347.75436Q317.30923 347.1909 317.1435 346.47275Q316.97778 345.75458 316.0497 344.8044L314.79016 343.5449ZM322.86664 342.71625L322.1043 343.47858L316.99988 338.37415L316.01654 340.48444L315.3205 339.78836L316.69052 336.76108L316.801 336.65057L322.86664 342.71625ZM323.59586 330.7838L326.7005 338.8824L325.89395 339.68893L322.97714 331.80026L319.7178 335.0596L319.08804 334.42984L323.16495 330.3529L323.59586 330.7838ZM329.67255 331.40253L327.65067 333.4244L327.03195 332.8057L329.05383 330.7838L329.67255 331.40253ZM333.58374 326.85052Q334.93167 328.19846 335.13052 329.3254Q335.3294 330.43027 334.3461 331.41357Q333.38486 332.3748 332.28 332.19803Q331.17517 332.02124 329.87143 330.76172L328.85495 329.74524Q327.5181 328.4084 327.33026 327.31458Q327.14243 326.19867 328.12576 325.21533Q329.09802 324.24307 330.19183 324.4088Q331.2746 324.56348 332.58936 325.85617L333.58374 326.85052ZM331.76074 326.5743Q330.78845 325.60205 330.0703 325.4363Q329.35214 325.24847 328.75552 325.84512Q328.16995 326.4307 328.34674 327.15988Q328.5235 327.867 329.44052 328.78403L330.66693 330.0104Q331.6392 330.9827 332.3905 331.18155Q333.14178 331.35834 333.7163 330.7838Q334.2798 330.22034 334.11407 329.50217Q333.94833 328.78403 333.02026 327.83386L331.76074 326.5743ZM339.83722 325.74567L339.07486 326.50803L333.97043 321.4036L332.98712 323.51385L332.29105 322.8178L333.66107 319.7905L333.77158 319.68002L339.83722 325.74567ZM341.69336 319.3817L339.67148 321.4036L339.05276 320.78488L341.07465 318.763L341.69336 319.3817ZM346.9083 318.6746L346.14594 319.43695L341.0415 314.33252L340.0582 316.4428L339.36212 315.74673L340.73215 312.71945L340.84262 312.60895L346.9083 318.6746ZM349.62622 310.65335Q349.68146 311.17264 349.51575 311.69193Q349.35 312.18912 348.95227 312.58685Q348.43298 313.10614 347.79218 313.2387Q347.15134 313.3713 346.4774 313.1172Q345.7924 312.85202 345.2289 312.28854Q344.6323 311.69193 344.36713 310.98483Q344.113 310.26666 344.27872 309.5927Q344.44446 308.89664 345.00793 308.33316Q345.90286 307.43823 347.08505 307.60397Q348.2783 307.75864 349.42734 308.90768L349.64832 309.12866Q351.41608 310.89642 351.52658 312.39905Q351.63705 313.90164 350.25598 315.3269L350.10132 315.48157L349.4605 314.84076L349.62622 314.67502Q350.5543 313.70276 350.58743 312.71945Q350.6206 311.7361 349.62622 310.65335ZM348.44403 311.83557Q348.83072 311.44885 348.91913 310.89642Q349.0075 310.3219 348.81967 309.8247L348.5103 309.51535Q347.75903 308.76407 346.95248 308.62042Q346.14594 308.4768 345.64874 308.974Q345.1405 309.4822 345.21786 310.17828Q345.30624 310.86328 345.94705 311.5041Q346.56577 312.12283 347.2508 312.2333Q347.94684 312.33273 348.44403 311.83557Z" fill-rule="nonzero"/><path fill="#757575" d="M354.37097 351.1794L350.4156 355.1348L349.86316 354.58237L349.63113 350.174Q349.56485 349.17963 349.42123 348.68246Q349.26654 348.17422 348.913 347.82068Q348.4379 347.34558 347.85233 347.33453Q347.26675 347.3014 346.7806 347.7875Q346.21713 348.35098 346.22818 349.00287Q346.22818 349.64368 346.81375 350.22925L346.05142 350.9916Q345.21173 350.15192 345.23383 349.11334Q345.25592 348.05267 346.15085 347.15775Q347.0016 346.307 347.92966 346.26282Q348.85776 346.21863 349.598 346.95886Q350.48187 347.84277 350.58133 350.2182L350.7139 353.57697L353.7412 350.54965L354.37097 351.1794ZM356.5807 343.8211Q357.9286 345.169 358.12747 346.29596Q358.32635 347.40082 357.34302 348.38412Q356.3818 349.34537 355.27695 349.16858Q354.1721 348.99182 352.86838 347.73227L351.8519 346.71582Q350.515 345.37894 350.3272 344.28513Q350.13937 343.16922 351.12268 342.1859Q352.09497 341.21362 353.18878 341.37936Q354.2715 341.53406 355.5863 342.82672L356.5807 343.8211ZM354.75766 343.5449Q353.7854 342.5726 353.06723 342.4069Q352.3491 342.21906 351.75247 342.81567Q351.1669 343.40125 351.34366 344.13046Q351.52045 344.83755 352.43747 345.75458L353.66385 346.981Q354.63614 347.95325 355.38742 348.15213Q356.13873 348.3289 356.71326 347.75436Q357.27673 347.1909 357.111 346.47275Q356.94528 345.75458 356.0172 344.8044L354.75766 343.5449ZM362.83414 342.71625L362.0718 343.47858L356.96738 338.37415L355.98404 340.48444L355.288 339.78836L356.65802 336.76108L356.7685 336.65057L362.83414 342.71625ZM363.56335 330.7838L366.668 338.8824L365.86145 339.68893L362.94464 331.80026L359.6853 335.0596L359.05554 334.42984L363.13245 330.3529L363.56335 330.7838ZM369.64005 331.40253L367.61816 333.4244L366.99945 332.8057L369.02133 330.7838L369.64005 331.40253ZM373.55124 326.85052Q374.89917 328.19846 375.09802 329.3254Q375.2969 330.43027 374.3136 331.41357Q373.35236 332.3748 372.2475 332.19803Q371.14267 332.02124 369.83893 330.76172L368.82245 329.74524Q367.4856 328.4084 367.29776 327.31458Q367.10992 326.19867 368.09326 325.21533Q369.06552 324.24307 370.15933 324.4088Q371.2421 324.56348 372.55685 325.85617L373.55124 326.85052ZM371.72824 326.5743Q370.75595 325.60205 370.0378 325.4363Q369.31964 325.2485 368.72302 325.84512Q368.13745 326.4307 368.31424 327.15988Q368.491 327.867 369.40802 328.78403L370.63443 330.0104Q371.6067 330.9827 372.358 331.18155Q373.10928 331.35834 373.6838 330.7838Q374.24728 330.22034 374.08157 329.50217Q373.91583 328.78403 372.98776 327.83386L371.72824 326.5743ZM374.6119 324.88388L371.91605 321.56934L375.00964 318.47574L375.71677 319.18283L373.27502 321.62457L374.73343 323.45862Q374.92126 322.74048 375.48474 322.177Q376.30234 321.3594 377.34088 321.4257Q378.3684 321.48093 379.29648 322.40903Q380.22455 323.3371 380.2577 324.3867Q380.3019 325.42526 379.3959 326.33124Q378.60043 327.12674 377.65024 327.19302Q376.68903 327.2483 375.8383 326.53012L376.55643 325.81195Q377.15308 326.2539 377.71655 326.22076Q378.28003 326.18762 378.76614 325.70148Q379.29648 325.17114 379.24124 324.4972Q379.186 323.82324 378.54517 323.1824Q377.9375 322.57474 377.24146 322.5416Q376.54538 322.50845 375.99298 323.06088Q375.4958 323.55807 375.41843 324.05524L375.38528 324.41986L374.6119 324.88388ZM381.66086 319.3817L379.63898 321.4036L379.02026 320.78488L381.04214 318.763L381.66086 319.3817ZM388.3121 317.23828L384.35672 321.19366L383.8043 320.64124L383.57227 316.23288Q383.50598 315.2385 383.36234 314.74133Q383.20767 314.2331 382.85413 313.87955Q382.37903 313.40445 381.79346 313.3934Q381.2079 313.36026 380.72174 313.8464Q380.15826 314.40988 380.1693 315.06174Q380.1693 315.70255 380.75488 316.28812L379.99255 317.05048Q379.15286 316.2108 379.17496 315.1722Q379.19705 314.11157 380.09198 313.2166Q380.94272 312.36588 381.8708 312.3217Q382.79886 312.2775 383.53912 313.01776Q384.423 313.90164 384.52243 316.27707L384.65503 319.63583L387.6823 316.60852L388.3121 317.23828ZM386.63272 312.86307L383.93686 309.54852L387.03046 306.45493L387.73758 307.16202L385.29584 309.60376L386.75424 311.4378Q386.94208 310.71967 387.50555 310.1562Q388.32315 309.3386 389.3617 309.40488Q390.38922 309.4601 391.3173 310.38818Q392.24536 311.31628 392.27853 312.36588Q392.32272 313.40445 391.41672 314.31042Q390.62125 315.10593 389.67105 315.1722Q388.70984 315.22745 387.8591 314.5093L388.57727 313.79114Q389.1739 314.2331 389.73737 314.19995Q390.30084 314.1668 390.78696 313.68066Q391.3173 313.15033 391.26205 312.47638Q391.20682 311.8024 390.566 311.1616Q389.9583 310.55392 389.26227 310.52078Q388.56622 310.48764 388.0138 311.04007Q387.5166 311.53726 387.43927 312.03442L387.4061 312.39905L386.63272 312.86307Z" fill-rule="nonzero"/><path fill="#757575" d="M394.33847 351.1794L390.3831 355.1348L389.83066 354.58237L389.59863 350.174Q389.53235 349.17963 389.38873 348.68246Q389.23404 348.17422 388.8805 347.82068Q388.4054 347.34558 387.81982 347.33453Q387.23425 347.3014 386.7481 347.7875Q386.18463 348.35098 386.19568 349.00287Q386.19568 349.64368 386.78125 350.22925L386.01892 350.9916Q385.17923 350.15192 385.20132 349.11334Q385.22342 348.05267 386.11835 347.15775Q386.9691 346.307 387.89716 346.26282Q388.82526 346.21863 389.5655 346.9589Q390.44937 347.84277 390.54883 350.2182L390.6814 353.57697L393.7087 350.54965L394.33847 351.1794ZM396.5482 343.8211Q397.8961 345.169 398.09497 346.29596Q398.29385 347.40082 397.31052 348.38416Q396.3493 349.34537 395.24445 349.16858Q394.1396 348.99182 392.83588 347.73227L391.8194 346.71582Q390.4825 345.37894 390.2947 344.28513Q390.10687 343.16922 391.09018 342.1859Q392.06247 341.21362 393.15628 341.37936Q394.239 341.53406 395.5538 342.82672L396.5482 343.8211ZM394.72516 343.5449Q393.7529 342.5726 393.03473 342.4069Q392.3166 342.21906 391.71997 342.81567Q391.1344 343.40125 391.31116 344.13046Q391.48795 344.83755 392.40497 345.75458L393.63135 346.981Q394.60364 347.95325 395.35492 348.15213Q396.10623 348.3289 396.68076 347.75436Q397.24423 347.1909 397.0785 346.47275Q396.91278 345.75458 395.9847 344.8044L394.72516 343.5449ZM402.80164 342.71625L402.0393 343.47858L396.93488 338.37415L395.95154 340.48444L395.2555 339.78836L396.62552 336.76108L396.736 336.65057L402.80164 342.71625ZM403.53085 330.7838L406.6355 338.8824L405.82895 339.68893L402.91214 331.80026L399.6528 335.0596L399.02304 334.42984L403.09998 330.3529L403.53085 330.7838ZM409.60754 331.40253L407.58566 333.4244L406.96695 332.8057L408.98883 330.7838L409.60754 331.40253ZM413.51874 326.85052Q414.86667 328.19846 415.06552 329.3254Q415.2644 330.43027 414.2811 331.41357Q413.31985 332.3748 412.215 332.19803Q411.11017 332.02124 409.80643 330.76172L408.78995 329.74524Q407.4531 328.4084 407.26526 327.31458Q407.07742 326.19867 408.06076 325.21533Q409.03302 324.24307 410.12683 324.4088Q411.2096 324.56348 412.52435 325.85617L413.51874 326.85052ZM411.69574 326.5743Q410.72345 325.60205 410.0053 325.4363Q409.28714 325.2485 408.69052 325.84512Q408.10495 326.4307 408.28174 327.15988Q408.4585 327.867 409.37552 328.78403L410.60193 330.0104Q411.5742 330.9827 412.3255 331.18155Q413.07678 331.35834 413.6513 330.7838Q414.21478 330.22034 414.04907 329.50217Q413.88333 328.78403 412.95526 327.83386L411.69574 326.5743ZM417.5404 322.6742Q417.59564 323.19345 417.42993 323.71274Q417.2642 324.20993 416.86646 324.60767Q416.34717 325.12695 415.70636 325.25955Q415.06552 325.39212 414.39157 325.138Q413.70657 324.87283 413.1431 324.30936Q412.54648 323.71274 412.2813 323.00565Q412.0272 322.28748 412.1929 321.61353Q412.35864 320.91745 412.92212 320.35397Q413.81705 319.45905 414.99924 319.6248Q416.19247 319.77945 417.34152 320.9285L417.5625 321.14948Q419.33026 322.91724 419.44077 324.41986Q419.55124 325.92245 418.17017 327.34772L418.0155 327.50238L417.37466 326.86157L417.5404 326.69586Q418.46848 325.72357 418.50162 324.74026Q418.5348 323.75693 417.5404 322.6742ZM416.35822 323.85638Q416.7449 323.46967 416.8333 322.91724Q416.9217 322.3427 416.73386 321.84555L416.4245 321.5362Q415.67322 320.78488 414.86667 320.64124Q414.06012 320.49762 413.56293 320.9948Q413.0547 321.50302 413.13205 322.1991Q413.22043 322.8841 413.86124 323.52493Q414.47995 324.14365 415.16498 324.25412Q415.86102 324.35355 416.35822 323.85638ZM421.62836 319.3817L419.60648 321.4036L418.98776 320.78488L421.00964 318.763L421.62836 319.3817ZM428.2796 317.23828L424.32422 321.19366L423.7718 320.64124L423.53976 316.23288Q423.47348 315.2385 423.32983 314.74133Q423.17517 314.2331 422.82162 313.87955Q422.34653 313.40445 421.76096 313.3934Q421.17538 313.36026 420.68924 313.8464Q420.12576 314.40988 420.1368 315.06174Q420.1368 315.70255 420.72238 316.28812L419.96005 317.05048Q419.12036 316.2108 419.14246 315.1722Q419.16455 314.11157 420.05948 313.2166Q420.91022 312.36588 421.8383 312.3217Q422.76636 312.2775 423.50662 313.01776Q424.3905 313.90164 424.48993 316.27707L424.62253 319.63583L427.6498 316.60852L428.2796 317.23828ZM427.57248 306.7422L430.67712 314.84076L429.87057 315.6473L426.95377 307.75864L423.69446 311.01797L423.06467 310.3882L427.1416 306.31128L427.57248 306.7422Z" fill-rule="nonzero"/><path fill="#757575" d="M434.30597 351.1794L430.3506 355.1348L429.79816 354.58237L429.56613 350.174Q429.49985 349.17963 429.35623 348.68246Q429.20154 348.17422 428.848 347.82068Q428.3729 347.34558 427.78732 347.33453Q427.20175 347.3014 426.7156 347.7875Q426.15213 348.35098 426.16318 349.00287Q426.16318 349.64368 426.74875 350.22925L425.98642 350.9916Q425.14673 350.15192 425.16882 349.11334Q425.19092 348.05267 426.08585 347.15775Q426.93658 346.307 427.86465 346.26282Q428.79276 346.21863 429.533 346.9589Q430.41687 347.84277 430.51633 350.2182L430.6489 353.57697L433.6762 350.54965L434.30597 351.1794ZM436.5157 343.8211Q437.8636 345.169 438.06247 346.29596Q438.26135 347.40082 437.278 348.38416Q436.3168 349.34537 435.21194 349.16858Q434.1071 348.99182 432.80338 347.73227L431.7869 346.71582Q430.45 345.37894 430.2622 344.28513Q430.07437 343.16922 431.05768 342.1859Q432.02997 341.21362 433.12378 341.37936Q434.20654 341.53406 435.5213 342.82672L436.5157 343.8211ZM434.69266 343.5449Q433.7204 342.5726 433.00223 342.4069Q432.2841 342.21906 431.68747 342.81567Q431.1019 343.40125 431.27866 344.13046Q431.45544 344.83755 432.37247 345.75458L433.59885 346.981Q434.57114 347.95325 435.32242 348.15213Q436.07373 348.3289 436.64825 347.75436Q437.21173 347.1909 437.046 346.47275Q436.88028 345.75458 435.9522 344.8044L434.69266 343.5449ZM442.76913 342.71625L442.0068 343.47858L436.90237 338.37418L435.91904 340.48444L435.223 339.78836L436.59302 336.76108L436.7035 336.65057L442.76913 342.71625ZM444.40433 332.15384Q444.85733 332.6068 444.9678 333.20343Q445.0783 333.80005 444.87943 334.3967Q445.54233 334.13153 446.2163 334.25305Q446.8792 334.36353 447.3764 334.86072Q448.14978 335.63412 448.09454 336.63953Q448.0393 337.62286 447.17752 338.48465Q446.3047 339.35748 445.3103 339.42377Q444.31595 339.46796 443.54254 338.69458Q443.04535 338.1974 442.92383 337.54553Q442.79126 336.8826 443.06747 336.20865Q442.47083 336.40753 441.88525 336.28598Q441.29968 336.16446 440.8467 335.71146Q440.08435 334.94913 440.12854 334.02103Q440.16168 333.0819 440.96823 332.27536Q441.76373 331.47986 442.70285 331.44672Q443.642 331.39148 444.40433 332.15384ZM446.59195 335.60098Q446.0837 335.09274 445.45395 335.1038Q444.81314 335.1038 444.29385 335.62308Q443.77457 336.14236 443.77457 336.78317Q443.77457 337.4019 444.29385 337.92117Q444.8021 338.4294 445.40976 338.41837Q446.00638 338.39627 446.54776 337.8549Q447.0781 337.32455 447.08914 336.7169Q447.1002 336.10922 446.59195 335.60098ZM441.598 332.90512Q441.14502 333.35812 441.14502 333.93265Q441.14502 334.48508 441.63113 334.97122Q442.08414 335.4242 442.6476 335.43524Q443.2111 335.4463 443.6641 334.99332Q444.1281 334.52927 444.11707 333.9658Q444.10602 333.4023 443.65305 332.94934Q443.189 332.4853 442.61447 332.4853Q442.0289 332.47424 441.598 332.90512ZM449.57504 331.40253L447.55316 333.4244L446.93445 332.8057L448.95633 330.7838L449.57504 331.40253ZM453.48624 326.85052Q454.83417 328.19846 455.03302 329.3254Q455.2319 330.43027 454.2486 331.41357Q453.28735 332.37482 452.1825 332.19803Q451.07767 332.02124 449.77393 330.76172L448.75745 329.74524Q447.4206 328.4084 447.23276 327.31458Q447.04492 326.19867 448.02826 325.21533Q449.00052 324.24307 450.09433 324.4088Q451.1771 324.56348 452.49188 325.85617L453.48624 326.85052ZM451.66324 326.5743Q450.69095 325.60205 449.9728 325.4363Q449.25464 325.2485 448.65802 325.84512Q448.07245 326.4307 448.24924 327.15988Q448.426 327.867 449.34302 328.78403L450.56943 330.0104Q451.5417 330.9827 452.293 331.18155Q453.04428 331.35834 453.6188 330.7838Q454.18228 330.22034 454.01657 329.50217Q453.85083 328.78403 452.92276 327.83386L451.66324 326.5743ZM458.43597 323.00565L459.27567 322.16595L459.89438 322.78467L459.0547 323.62436L460.45786 325.02753L459.69553 325.78986L458.29236 324.38672L455.54126 327.1378L455.0883 326.6848L453.60776 319.81262L454.42535 318.99503L458.43597 323.00565ZM455.79538 325.64624L457.67365 323.76797L454.71262 320.80698L454.77893 321.07214L455.79538 325.64624ZM461.59586 319.3817L459.57397 321.4036L458.95526 320.78488L460.97714 318.763L461.59586 319.3817ZM466.8108 318.67462L466.04843 319.43695L460.944 314.33252L459.9607 316.4428L459.26462 315.74673L460.63464 312.71945L460.74512 312.60895L466.8108 318.67462ZM473.19684 312.28854L469.24146 316.24393L468.68903 315.6915L468.457 311.28314Q468.39072 310.28876 468.2471 309.79156Q468.0924 309.28336 467.73886 308.92978Q467.26376 308.4547 466.6782 308.44366Q466.09262 308.41052 465.60648 308.89664Q465.043 309.4601 465.05405 310.112Q465.05405 310.7528 465.63965 311.33838L464.8773 312.10074Q464.0376 311.26105 464.0597 310.22247Q464.0818 309.1618 464.9767 308.26688Q465.82745 307.41614 466.75552 307.37195Q467.68362 307.32776 468.42386 308.068Q469.30774 308.9519 469.4072 311.32733L469.53976 314.6861L472.56708 311.65878L473.19684 312.28854Z" fill-rule="nonzero"/><path fill="#757575" d="M474.27347 351.1794L470.31808 355.1348L469.76566 354.58237L469.53363 350.174Q469.46735 349.17963 469.32373 348.68246Q469.16904 348.17422 468.8155 347.82068Q468.3404 347.34558 467.75482 347.33453Q467.16925 347.3014 466.6831 347.7875Q466.11963 348.35098 466.13068 349.00287Q466.13068 349.64368 466.71625 350.22925L465.95392 350.9916Q465.11423 350.15192 465.13632 349.11334Q465.15842 348.05267 466.05334 347.15775Q466.90408 346.307 467.83215 346.26282Q468.76025 346.21863 469.5005 346.9589Q470.38437 347.84277 470.48383 350.2182L470.6164 353.57697L473.6437 350.54965L474.27347 351.1794ZM476.4832 343.8211Q477.8311 345.169 478.02997 346.29596Q478.22885 347.40082 477.2455 348.38416Q476.2843 349.34537 475.17944 349.16858Q474.0746 348.99182 472.77087 347.73227L471.7544 346.71582Q470.4175 345.37894 470.2297 344.28513Q470.04187 343.16922 471.02518 342.1859Q471.99747 341.21362 473.09128 341.37936Q474.17404 341.53406 475.4888 342.82672L476.4832 343.8211ZM474.66016 343.5449Q473.6879 342.5726 472.96973 342.4069Q472.2516 342.21906 471.65497 342.81567Q471.0694 343.40125 471.24615 344.13046Q471.42294 344.83755 472.33997 345.75458L473.56635 346.981Q474.53864 347.95325 475.28992 348.15213Q476.04123 348.3289 476.61575 347.75436Q477.17923 347.1909 477.0135 346.47275Q476.84778 345.75458 475.9197 344.8044L474.66016 343.5449ZM482.73663 342.71625L481.9743 343.47858L476.86987 338.37418L475.88657 340.48444L475.1905 339.78836L476.56052 336.76108L476.671 336.65057L482.73663 342.71625ZM484.37183 332.15384Q484.82483 332.6068 484.9353 333.20343Q485.0458 333.80008 484.84692 334.3967Q485.50983 334.13153 486.1838 334.25305Q486.8467 334.36353 487.3439 334.86072Q488.11728 335.63412 488.06204 336.63953Q488.0068 337.62286 487.14502 338.48465Q486.2722 339.35748 485.2778 339.42377Q484.28345 339.46796 483.51004 338.69458Q483.01285 338.1974 482.89133 337.54553Q482.75876 336.8826 483.03497 336.20865Q482.43832 336.40753 481.85275 336.28598Q481.26718 336.16446 480.8142 335.71146Q480.05185 334.94913 480.09604 334.02103Q480.12918 333.0819 480.93573 332.27536Q481.73123 331.47986 482.67035 331.44672Q483.6095 331.39148 484.37183 332.15384ZM486.55945 335.60098Q486.0512 335.09274 485.42145 335.1038Q484.78064 335.1038 484.26135 335.62308Q483.74207 336.14236 483.74207 336.78317Q483.74207 337.4019 484.26135 337.92117Q484.7696 338.4294 485.37726 338.41837Q485.97388 338.39627 486.51526 337.8549Q487.0456 337.32455 487.05664 336.7169Q487.0677 336.10922 486.55945 335.60098ZM481.5655 332.90512Q481.11252 333.35812 481.11252 333.93265Q481.11252 334.48508 481.59866 334.97122Q482.05164 335.4242 482.6151 335.43524Q483.1786 335.4463 483.6316 334.99332Q484.0956 334.52927 484.08456 333.9658Q484.07352 333.4023 483.62054 332.94934Q483.1565 332.4853 482.58197 332.4853Q481.9964 332.47424 481.5655 332.90512ZM489.54254 331.40253L487.52066 333.4244L486.90195 332.8057L488.92383 330.7838L489.54254 331.40253ZM494.75748 330.69543L493.99512 331.45776L488.8907 326.35333L487.90738 328.46362L487.2113 327.76755L488.58133 324.74026L488.6918 324.62976L494.75748 330.69543ZM499.70718 325.7457L498.94485 326.50806L493.84042 321.40363L492.85712 323.5139L492.16104 322.8178L493.53107 319.79053L493.64154 319.68005L499.70718 325.7457ZM501.56335 319.38174L499.54147 321.40363L498.92273 320.7849L500.94464 318.76303L501.56335 319.38174ZM505.47452 314.82974Q506.82245 316.17767 507.02133 317.3046Q507.22018 318.40945 506.23688 319.3928Q505.27567 320.354 504.1708 320.17725Q503.06595 320.00046 501.7622 318.74094L500.74576 317.72446Q499.40887 316.38757 499.22104 315.29376Q499.03323 314.1779 500.01654 313.19455Q500.98883 312.2223 502.0826 312.388Q503.16537 312.5427 504.48016 313.83536L505.47452 314.82974ZM503.65152 314.55353Q502.67926 313.58124 501.9611 313.41553Q501.24295 313.2277 500.6463 313.8243Q500.06073 314.40988 500.23752 315.1391Q500.4143 315.8462 501.33133 316.76324L502.5577 317.98962Q503.53 318.96188 504.28128 319.16077Q505.0326 319.33755 505.60712 318.76303Q506.1706 318.19955 506.00485 317.48138Q505.83914 316.76324 504.91104 315.81305L503.65152 314.55353ZM509.4962 310.65338Q509.55145 311.17267 509.3857 311.69196Q509.21997 312.18915 508.82224 312.58688Q508.30295 313.10617 507.66214 313.23874Q507.02133 313.37134 506.34735 313.11722Q505.66235 312.85205 505.09888 312.28857Q504.50226 311.69196 504.2371 310.98483Q503.98297 310.2667 504.1487 309.5927Q504.31442 308.89667 504.8779 308.3332Q505.77283 307.43826 506.95505 307.604Q508.1483 307.75867 509.29733 308.9077L509.5183 309.1287Q511.28607 310.89645 511.39655 312.39905Q511.50702 313.90167 510.12598 315.32693L509.97128 315.4816L509.33047 314.8408L509.4962 314.67505Q510.4243 313.7028 510.45743 312.71945Q510.49057 311.73615 509.4962 310.65338ZM508.314 311.83557Q508.7007 311.44888 508.7891 310.89645Q508.87747 310.32193 508.68967 309.82474L508.3803 309.51538Q507.629 308.7641 506.82245 308.62045Q506.0159 308.47684 505.51874 308.974Q505.0105 309.48224 505.08783 310.1783Q505.1762 310.8633 505.81705 311.50412Q506.43576 312.12283 507.12076 312.23334Q507.81683 312.33276 508.314 311.83557Z" fill-rule="nonzero"/><path stroke="#3366cc" stroke-width="4.0" stroke-linecap="butt" d="M545.3289 57.416668L557.3289 57.416668" fill-rule="nonzero"/><path fill="#000000" d="M25.471874 30.565624Q25.471874 29.89375 25.003124 29.55Q24.534374 29.190624 23.315624 28.8Q22.096874 28.39375 21.378124 28.01875Q19.440624 26.971874 19.440624 25.190624Q19.440624 24.26875 19.95625 23.55Q20.4875 22.83125 21.45625 22.425Q22.425 22.01875 23.64375 22.01875Q24.8625 22.01875 25.815624 22.45625Q26.76875 22.89375 27.284374 23.70625Q27.815624 24.503124 27.815624 25.534374L25.471874 25.534374Q25.471874 24.753124 24.971874 24.315624Q24.4875 23.878124 23.596874 23.878124Q22.7375 23.878124 22.253124 24.253124Q21.784374 24.6125 21.784374 25.20625Q21.784374 25.753124 22.346874 26.128124Q22.909374 26.503124 23.9875 26.83125Q25.9875 27.440624 26.89375 28.33125Q27.815624 29.221874 27.815624 30.55Q27.815624 32.01875 26.690624 32.8625Q25.58125 33.70625 23.690624 33.70625Q22.378124 33.70625 21.3 33.221874Q20.221874 32.7375 19.659374 31.909374Q19.096874 31.065624 19.096874 29.971874L21.440624 29.971874Q21.440624 31.846874 23.690624 31.846874Q24.534374 31.846874 25.003124 31.51875Q25.471874 31.175 25.471874 30.565624ZM32.58125 30.346874L34.14375 25.096874L36.565624 25.096874L33.159374 34.8625L32.971874 35.315624Q32.221874 36.971874 30.471874 36.971874Q29.9875 36.971874 29.471874 36.815624L29.471874 35.1125L29.815624 35.1125Q30.45625 35.1125 30.76875 34.909374Q31.096874 34.721874 31.26875 34.26875L31.534374 33.58125L28.58125 25.096874L31.003124 25.096874L32.58125 30.346874ZM42.003124 31.20625Q42.003124 30.8 41.58125 30.565624Q41.175 30.315624 40.26875 30.128124Q37.253124 29.503124 37.253124 27.565624Q37.253124 26.440624 38.190624 25.690624Q39.128124 24.940624 40.628124 24.940624Q42.2375 24.940624 43.20625 25.70625Q44.175 26.45625 44.175 27.659374L41.909374 27.659374Q41.909374 27.175 41.596874 26.8625Q41.284374 26.55 40.628124 26.55Q40.05 26.55 39.7375 26.815624Q39.425 27.065624 39.425 27.45625Q39.425 27.83125 39.784374 28.065624Q40.14375 28.3 40.9875 28.471874Q41.83125 28.628124 42.409374 28.846874Q44.190624 29.503124 44.190624 31.1125Q44.190624 32.26875 43.190624 32.9875Q42.20625 33.70625 40.64375 33.70625Q39.58125 33.70625 38.753124 33.33125Q37.925 32.940624 37.45625 32.284374Q36.9875 31.628124 36.9875 30.8625L39.128124 30.8625Q39.159374 31.45625 39.565624 31.784374Q39.9875 32.096874 40.690624 32.096874Q41.33125 32.096874 41.659374 31.8625Q42.003124 31.6125 42.003124 31.20625ZM45.065624 29.2375Q45.065624 27.9875 45.55 27.003124Q46.034374 26.01875 46.940624 25.4875Q47.8625 24.940624 49.065624 24.940624Q50.76875 24.940624 51.846874 25.9875Q52.940624 27.034374 53.065624 28.83125L53.08125 29.409374Q53.08125 31.346874 51.9875 32.534374Q50.909374 33.70625 49.08125 33.70625Q47.253124 33.70625 46.159374 32.534374Q45.065624 31.3625 45.065624 29.346874L45.065624 29.2375ZM47.33125 29.409374Q47.33125 30.6125 47.784374 31.253124Q48.2375 31.878124 49.08125 31.878124Q49.89375 31.878124 50.346874 31.253124Q50.815624 30.628124 50.815624 29.2375Q50.815624 28.065624 50.346874 27.425Q49.89375 26.76875 49.065624 26.76875Q48.2375 26.76875 47.784374 27.409374Q47.33125 28.05 47.33125 29.409374ZM56.503124 25.096874L56.565624 26.065624Q57.471874 24.940624 59.003124 24.940624Q60.346874 24.940624 61.003124 25.7375Q61.659374 26.51875 61.675 28.08125L61.675 33.55L59.409374 33.55L59.409374 28.14375Q59.409374 27.425 59.096874 27.096874Q58.784374 26.76875 58.065624 26.76875Q57.1125 26.76875 56.628124 27.58125L56.628124 33.55L54.378124 33.55L54.378124 25.096874L56.503124 25.096874ZM68.00313 31.20625Q68.00313 30.8 67.58125 30.565624Q67.175 30.315624 66.26875 30.128124Q63.253124 29.503124 63.253124 27.565624Q63.253124 26.440624 64.19063 25.690624Q65.12813 24.940624 66.62813 24.940624Q68.2375 24.940624 69.20625 25.70625Q70.175 26.45625 70.175 27.659374L67.90938 27.659374Q67.90938 27.175 67.59688 26.8625Q67.28438 26.55 66.62813 26.55Q66.05 26.55 65.7375 26.815624Q65.425 27.065624 65.425 27.45625Q65.425 27.83125 65.78438 28.065624Q66.14375 28.3 66.9875 28.471874Q67.83125 28.628124 68.40938 28.846874Q70.19063 29.503124 70.19063 31.1125Q70.19063 32.26875 69.19063 32.9875Q68.20625 33.70625 66.64375 33.70625Q65.58125 33.70625 64.75313 33.33125Q63.925 32.940624 63.45625 32.284374Q62.9875 31.628124 62.9875 30.8625L65.12813 30.8625Q65.15938 31.45625 65.56563 31.784374Q65.9875 32.096874 66.69063 32.096874Q67.33125 32.096874 67.65938 31.8625Q68.00313 31.6125 68.00313 31.20625ZM75.09688 29.253124Q75.09688 27.315624 76.01875 26.128124Q76.94063 24.940624 78.51875 24.940624Q79.90938 24.940624 80.675 25.89375L80.76875 25.096874L82.81563 25.096874L82.81563 33.26875Q82.81563 34.378124 82.31563 35.190624Q81.81563 36.01875 80.89375 36.440624Q79.9875 36.878124 78.75313 36.878124Q77.83125 36.878124 76.94063 36.503124Q76.06563 36.14375 75.6125 35.55L76.6125 34.175Q77.45625 35.128124 78.65938 35.128124Q79.55 35.128124 80.05 34.64375Q80.55 34.159374 80.55 33.26875L80.55 32.815624Q79.76875 33.70625 78.50313 33.70625Q76.97188 33.70625 76.03438 32.51875Q75.09688 31.315624 75.09688 29.346874L75.09688 29.253124ZM77.34688 29.425Q77.34688 30.565624 77.8 31.221874Q78.26875 31.878124 79.08125 31.878124Q80.1125 31.878124 80.55 31.096874L80.55 27.55Q80.09688 26.76875 79.09688 26.76875Q78.28438 26.76875 77.81563 27.440624Q77.34688 28.096874 77.34688 29.425ZM86.8 33.55L84.53438 33.55L84.53438 21.55L86.8 21.55L86.8 33.55ZM93.31563 33.55Q93.15938 33.2375 93.09688 32.784374Q92.26875 33.70625 90.95625 33.70625Q89.72188 33.70625 88.89375 32.9875Q88.08125 32.26875 88.08125 31.175Q88.08125 29.83125 89.08125 29.1125Q90.08125 28.39375 91.95625 28.378124L93.00313 28.378124L93.00313 27.89375Q93.00313 27.315624 92.69063 26.971874Q92.39375 26.6125 91.75313 26.6125Q91.175 26.6125 90.84688 26.89375Q90.53438 27.159374 90.53438 27.628124L88.26875 27.628124Q88.26875 26.89375 88.72188 26.26875Q89.175 25.64375 90.00313 25.3Q90.83125 24.940624 91.8625 24.940624Q93.425 24.940624 94.34688 25.721874Q95.26875 26.503124 95.26875 27.925L95.26875 31.596874Q95.26875 32.8 95.59688 33.409374L95.59688 33.55L93.31563 33.55ZM91.45625 31.971874Q91.95625 31.971874 92.37813 31.753124Q92.8 31.534374 93.00313 31.159374L93.00313 29.70625L92.15938 29.70625Q90.45625 29.70625 90.34688 30.878124L90.34688 31.003124Q90.34688 31.425 90.64375 31.70625Q90.94063 31.971874 91.45625 31.971874ZM97.06563 29.253124Q97.06563 27.284374 97.95625 26.1125Q98.84688 24.940624 100.37813 24.940624Q101.6125 24.940624 102.425 25.8625L102.425 21.55L104.69063 21.55L104.69063 33.55L102.64375 33.55L102.53438 32.64375Q101.69063 33.70625 100.3625 33.70625Q98.87813 33.70625 97.97188 32.534374Q97.06563 31.346874 97.06563 29.253124ZM99.33125 29.425Q99.33125 30.6125 99.7375 31.253124Q100.15938 31.878124 100.94063 31.878124Q101.9875 31.878124 102.425 30.9875L102.425 27.659374Q102.00313 26.76875 100.95625 26.76875Q99.33125 26.76875 99.33125 29.425ZM108.50313 25.096874L108.56563 26.065624Q109.47188 24.940624 111.00313 24.940624Q112.34688 24.940624 113.00313 25.7375Q113.65938 26.51875 113.675 28.08125L113.675 33.55L111.40938 33.55L111.40938 28.14375Q111.40938 27.425 111.09688 27.096874Q110.78438 26.76875 110.06563 26.76875Q109.1125 26.76875 108.62813 27.58125L108.62813 33.55L106.37813 33.55L106.37813 25.096874L108.50313 25.096874ZM117.8 33.55L115.53438 33.55L115.53438 25.096874L117.8 25.096874L117.8 33.55ZM115.40938 22.909374Q115.40938 22.39375 115.7375 22.065624Q116.08125 21.7375 116.675 21.7375Q117.25313 21.7375 117.59688 22.065624Q117.94063 22.39375 117.94063 22.909374Q117.94063 23.425 117.58125 23.753124Q117.2375 24.08125 116.65938 24.08125Q116.09688 24.08125 115.75313 23.753124Q115.40938 23.425 115.40938 22.909374ZM122.58125 30.784374L124.15938 25.096874L126.51875 25.096874L123.65938 33.55L121.50313 33.55L118.65938 25.096874L121.01875 25.096874L122.58125 30.784374ZM132.31563 33.55Q132.15938 33.2375 132.09688 32.784374Q131.26875 33.70625 129.95625 33.70625Q128.72188 33.70625 127.89375 32.9875Q127.08125 32.26875 127.08125 31.175Q127.08125 29.83125 128.08125 29.1125Q129.08125 28.39375 130.95625 28.378124L132.00313 28.378124L132.00313 27.89375Q132.00313 27.315624 131.69063 26.971874Q131.39375 26.6125 130.75313 26.6125Q130.175 26.6125 129.84688 26.89375Q129.53438 27.159374 129.53438 27.628124L127.26875 27.628124Q127.26875 26.89375 127.72188 26.26875Q128.175 25.64375 129.00313 25.3Q129.83125 24.940624 130.8625 24.940624Q132.425 24.940624 133.34688 25.721874Q134.26875 26.503124 134.26875 27.925L134.26875 31.596874Q134.26875 32.8 134.59688 33.409374L134.59688 33.55L132.31563 33.55ZM130.45625 31.971874Q130.95625 31.971874 131.37813 31.753124Q131.8 31.534374 132.00313 31.159374L132.00313 29.70625L131.15938 29.70625Q129.45625 29.70625 129.34688 30.878124L129.34688 31.003124Q129.34688 31.425 129.64375 31.70625Q129.94063 31.971874 130.45625 31.971874ZM129.4875 22.190624Q129.4875 21.51875 129.9875 21.065624Q130.50313 20.596874 131.22188 20.596874Q131.94063 20.596874 132.45625 21.05Q132.97188 21.503124 132.97188 22.190624Q132.97188 22.8625 132.47188 23.315624Q131.97188 23.76875 131.22188 23.76875Q130.47188 23.76875 129.97188 23.315624Q129.4875 22.846874 129.4875 22.190624ZM130.37813 22.190624Q130.37813 22.534374 130.59688 22.784374Q130.83125 23.034374 131.22188 23.034374Q131.6125 23.034374 131.83125 22.784374Q132.06563 22.534374 132.06563 22.190624Q132.06563 21.83125 131.83125 21.596874Q131.6125 21.346874 131.22188 21.346874Q130.84688 21.346874 130.6125 21.596874Q130.37813 21.83125 130.37813 22.190624ZM140.06563 29.2375Q140.06563 27.9875 140.55 27.003124Q141.03438 26.01875 141.94063 25.4875Q142.8625 24.940624 144.06563 24.940624Q145.76875 24.940624 146.84688 25.9875Q147.94063 27.034374 148.06563 28.83125L148.08125 29.409374Q148.08125 31.346874 146.9875 32.534374Q145.90938 33.70625 144.08125 33.70625Q142.25313 33.70625 141.15938 32.534374Q140.06563 31.3625 140.06563 29.346874L140.06563 29.2375ZM142.33125 29.409374Q142.33125 30.6125 142.78438 31.253124Q143.2375 31.878124 144.08125 31.878124Q144.89375 31.878124 145.34688 31.253124Q145.81563 30.628124 145.81563 29.2375Q145.81563 28.065624 145.34688 27.425Q144.89375 26.76875 144.06563 26.76875Q143.2375 26.76875 142.78438 27.409374Q142.33125 28.05 142.33125 29.409374ZM143.45625 22.878124Q143.45625 23.3 143.14375 23.58125Q142.84688 23.8625 142.3625 23.8625Q141.87813 23.8625 141.58125 23.58125Q141.28438 23.284374 141.28438 22.878124Q141.28438 22.471874 141.58125 22.190624Q141.87813 21.89375 142.3625 21.89375Q142.84688 21.89375 143.14375 22.190624Q143.45625 22.471874 143.45625 22.878124ZM145.09688 22.878124Q145.09688 22.45625 145.40938 22.175Q145.72188 21.89375 146.175 21.89375Q146.64375 21.89375 146.94063 22.190624Q147.25313 22.471874 147.25313 22.878124Q147.25313 23.284374 146.95625 23.58125Q146.65938 23.878124 146.175 23.878124Q145.69063 23.878124 145.39375 23.58125Q145.09688 23.284374 145.09688 22.878124ZM152.58125 30.784374L154.15938 25.096874L156.51875 25.096874L153.65938 33.55L151.50313 33.55L148.65938 25.096874L151.01875 25.096874L152.58125 30.784374ZM161.31563 33.70625Q159.45625 33.70625 158.28438 32.565624Q157.1125 31.425 157.1125 29.51875L157.1125 29.3Q157.1125 28.034374 157.59688 27.034374Q158.09688 26.01875 159.00313 25.4875Q159.90938 24.940624 161.06563 24.940624Q162.8 24.940624 163.78438 26.034374Q164.78438 27.128124 164.78438 29.128124L164.78438 30.05L159.40938 30.05Q159.51875 30.878124 160.06563 31.378124Q160.6125 31.878124 161.45625 31.878124Q162.76875 31.878124 163.50313 30.940624L164.6125 32.175Q164.09688 32.89375 163.22188 33.3Q162.3625 33.70625 161.31563 33.70625ZM161.05 26.76875Q160.37813 26.76875 159.95625 27.221874Q159.55 27.675 159.425 28.51875L162.56563 28.51875L162.56563 28.33125Q162.55 27.58125 162.15938 27.175Q161.76875 26.76875 161.05 26.76875ZM171.175 27.20625Q170.70625 27.14375 170.3625 27.14375Q169.08125 27.14375 168.675 28.01875L168.675 33.55L166.425 33.55L166.425 25.096874L168.55 25.096874L168.6125 26.096874Q169.3 24.940624 170.50313 24.940624Q170.87813 24.940624 171.20625 25.034374L171.175 27.20625ZM179.12813 23.01875L179.12813 25.096874L180.56563 25.096874L180.56563 26.753124L179.12813 26.753124L179.12813 30.971874Q179.12813 31.440624 179.3 31.64375Q179.4875 31.846874 179.9875 31.846874Q180.3625 31.846874 180.65938 31.784374L180.65938 33.503124Q179.9875 33.70625 179.28438 33.70625Q176.90938 33.70625 176.8625 31.3L176.8625 26.753124L175.62813 26.753124L175.62813 25.096874L176.8625 25.096874L176.8625 23.01875L179.12813 23.01875ZM183.8 33.55L181.53438 33.55L181.53438 25.096874L183.8 25.096874L183.8 33.55ZM181.40938 22.909374Q181.40938 22.39375 181.7375 22.065624Q182.08125 21.7375 182.675 21.7375Q183.25313 21.7375 183.59688 22.065624Q183.94063 22.39375 183.94063 22.909374Q183.94063 23.425 183.58125 23.753124Q183.2375 24.08125 182.65938 24.08125Q182.09688 24.08125 181.75313 23.753124Q181.40938 23.425 181.40938 22.909374ZM185.06563 29.253124Q185.06563 27.284374 185.95625 26.1125Q186.84688 24.940624 188.37813 24.940624Q189.6125 24.940624 190.425 25.8625L190.425 21.55L192.69063 21.55L192.69063 33.55L190.64375 33.55L190.53438 32.64375Q189.69063 33.70625 188.3625 33.70625Q186.87813 33.70625 185.97188 32.534374Q185.06563 31.346874 185.06563 29.253124ZM187.33125 29.425Q187.33125 30.6125 187.7375 31.253124Q188.15938 31.878124 188.94063 31.878124Q189.9875 31.878124 190.425 30.9875L190.425 27.659374Q190.00313 26.76875 188.95625 26.76875Q187.33125 26.76875 187.33125 29.425Z" fill-rule="nonzero"/></svg>